G04 #@! TF.FileFunction,Legend,Top*
%FSLAX46Y46*%
G04 Gerber Fmt 4.6, Leading zero omitted, Abs format (unit mm)*
G04 Created by KiCad (PCBNEW 4.0.6) date Thursday, 02 November 2017 'PMt' 05:38:20 PM*
%MOMM*%
%LPD*%
G01*
G04 APERTURE LIST*
%ADD10C,0.100000*%
%ADD11C,0.200000*%
%ADD12C,0.250000*%
%ADD13C,0.300000*%
%ADD14C,0.400000*%
%ADD15C,0.150000*%
%ADD16C,0.120000*%
%ADD17C,0.160000*%
G04 APERTURE END LIST*
D10*
D11*
X162188095Y-109111905D02*
X162188095Y-108311905D01*
X162492857Y-108311905D01*
X162569048Y-108350000D01*
X162607143Y-108388095D01*
X162645238Y-108464286D01*
X162645238Y-108578571D01*
X162607143Y-108654762D01*
X162569048Y-108692857D01*
X162492857Y-108730952D01*
X162188095Y-108730952D01*
X162988095Y-109111905D02*
X162988095Y-108311905D01*
X163369047Y-108578571D02*
X163978571Y-108807143D01*
X163369047Y-109035714D01*
X164359523Y-109111905D02*
X164359523Y-108311905D01*
X164626190Y-108883333D01*
X164892857Y-108311905D01*
X164892857Y-109111905D01*
X165730952Y-109035714D02*
X165692857Y-109073810D01*
X165578571Y-109111905D01*
X165502381Y-109111905D01*
X165388095Y-109073810D01*
X165311904Y-108997619D01*
X165273809Y-108921429D01*
X165235714Y-108769048D01*
X165235714Y-108654762D01*
X165273809Y-108502381D01*
X165311904Y-108426190D01*
X165388095Y-108350000D01*
X165502381Y-108311905D01*
X165578571Y-108311905D01*
X165692857Y-108350000D01*
X165730952Y-108388095D01*
X166073809Y-108311905D02*
X166073809Y-108959524D01*
X166111904Y-109035714D01*
X166150000Y-109073810D01*
X166226190Y-109111905D01*
X166378571Y-109111905D01*
X166454762Y-109073810D01*
X166492857Y-109035714D01*
X166530952Y-108959524D01*
X166530952Y-108311905D01*
X167978571Y-109111905D02*
X167711904Y-108730952D01*
X167521428Y-109111905D02*
X167521428Y-108311905D01*
X167826190Y-108311905D01*
X167902381Y-108350000D01*
X167940476Y-108388095D01*
X167978571Y-108464286D01*
X167978571Y-108578571D01*
X167940476Y-108654762D01*
X167902381Y-108692857D01*
X167826190Y-108730952D01*
X167521428Y-108730952D01*
X168207142Y-108311905D02*
X168664285Y-108311905D01*
X168435714Y-109111905D02*
X168435714Y-108311905D01*
X168892857Y-109073810D02*
X169007143Y-109111905D01*
X169197619Y-109111905D01*
X169273809Y-109073810D01*
X169311905Y-109035714D01*
X169350000Y-108959524D01*
X169350000Y-108883333D01*
X169311905Y-108807143D01*
X169273809Y-108769048D01*
X169197619Y-108730952D01*
X169045238Y-108692857D01*
X168969047Y-108654762D01*
X168930952Y-108616667D01*
X168892857Y-108540476D01*
X168892857Y-108464286D01*
X168930952Y-108388095D01*
X168969047Y-108350000D01*
X169045238Y-108311905D01*
X169235714Y-108311905D01*
X169350000Y-108350000D01*
X177445238Y-97057143D02*
X178054762Y-97057143D01*
X177750000Y-97361905D02*
X177750000Y-96752381D01*
D12*
X184452381Y-102595238D02*
X183452381Y-102595238D01*
X184166667Y-102261904D01*
X183452381Y-101928571D01*
X184452381Y-101928571D01*
X184357143Y-100880952D02*
X184404762Y-100928571D01*
X184452381Y-101071428D01*
X184452381Y-101166666D01*
X184404762Y-101309524D01*
X184309524Y-101404762D01*
X184214286Y-101452381D01*
X184023810Y-101500000D01*
X183880952Y-101500000D01*
X183690476Y-101452381D01*
X183595238Y-101404762D01*
X183500000Y-101309524D01*
X183452381Y-101166666D01*
X183452381Y-101071428D01*
X183500000Y-100928571D01*
X183547619Y-100880952D01*
X183452381Y-100452381D02*
X184261905Y-100452381D01*
X184357143Y-100404762D01*
X184404762Y-100357143D01*
X184452381Y-100261905D01*
X184452381Y-100071428D01*
X184404762Y-99976190D01*
X184357143Y-99928571D01*
X184261905Y-99880952D01*
X183452381Y-99880952D01*
X184452381Y-98166666D02*
X184452381Y-98642857D01*
X183452381Y-98642857D01*
X183928571Y-97833333D02*
X183928571Y-97499999D01*
X184452381Y-97357142D02*
X184452381Y-97833333D01*
X183452381Y-97833333D01*
X183452381Y-97357142D01*
X184452381Y-96928571D02*
X183452381Y-96928571D01*
X183452381Y-96690476D01*
X183500000Y-96547618D01*
X183595238Y-96452380D01*
X183690476Y-96404761D01*
X183880952Y-96357142D01*
X184023810Y-96357142D01*
X184214286Y-96404761D01*
X184309524Y-96452380D01*
X184404762Y-96547618D01*
X184452381Y-96690476D01*
X184452381Y-96928571D01*
X169047619Y-113327381D02*
X169047619Y-112327381D01*
X169380953Y-113041667D01*
X169714286Y-112327381D01*
X169714286Y-113327381D01*
X170761905Y-113232143D02*
X170714286Y-113279762D01*
X170571429Y-113327381D01*
X170476191Y-113327381D01*
X170333333Y-113279762D01*
X170238095Y-113184524D01*
X170190476Y-113089286D01*
X170142857Y-112898810D01*
X170142857Y-112755952D01*
X170190476Y-112565476D01*
X170238095Y-112470238D01*
X170333333Y-112375000D01*
X170476191Y-112327381D01*
X170571429Y-112327381D01*
X170714286Y-112375000D01*
X170761905Y-112422619D01*
X171190476Y-112327381D02*
X171190476Y-113136905D01*
X171238095Y-113232143D01*
X171285714Y-113279762D01*
X171380952Y-113327381D01*
X171571429Y-113327381D01*
X171666667Y-113279762D01*
X171714286Y-113232143D01*
X171761905Y-113136905D01*
X171761905Y-112327381D01*
X168714286Y-115077381D02*
X168380952Y-114601190D01*
X168142857Y-115077381D02*
X168142857Y-114077381D01*
X168523810Y-114077381D01*
X168619048Y-114125000D01*
X168666667Y-114172619D01*
X168714286Y-114267857D01*
X168714286Y-114410714D01*
X168666667Y-114505952D01*
X168619048Y-114553571D01*
X168523810Y-114601190D01*
X168142857Y-114601190D01*
X169142857Y-114553571D02*
X169476191Y-114553571D01*
X169619048Y-115077381D02*
X169142857Y-115077381D01*
X169142857Y-114077381D01*
X169619048Y-114077381D01*
X170000000Y-115029762D02*
X170142857Y-115077381D01*
X170380953Y-115077381D01*
X170476191Y-115029762D01*
X170523810Y-114982143D01*
X170571429Y-114886905D01*
X170571429Y-114791667D01*
X170523810Y-114696429D01*
X170476191Y-114648810D01*
X170380953Y-114601190D01*
X170190476Y-114553571D01*
X170095238Y-114505952D01*
X170047619Y-114458333D01*
X170000000Y-114363095D01*
X170000000Y-114267857D01*
X170047619Y-114172619D01*
X170095238Y-114125000D01*
X170190476Y-114077381D01*
X170428572Y-114077381D01*
X170571429Y-114125000D01*
X171000000Y-114410714D02*
X171761905Y-114696429D01*
X171000000Y-114982143D01*
D11*
X157945238Y-112557143D02*
X158554762Y-112557143D01*
X158250000Y-112861905D02*
X158250000Y-112252381D01*
X160945238Y-117807143D02*
X161554762Y-117807143D01*
X161250000Y-118111905D02*
X161250000Y-117502381D01*
X155695238Y-117807143D02*
X156304762Y-117807143D01*
X156000000Y-118111905D02*
X156000000Y-117502381D01*
X165695238Y-88807143D02*
X166304762Y-88807143D01*
X166000000Y-89111905D02*
X166000000Y-88502381D01*
X182719048Y-82692857D02*
X182452381Y-82692857D01*
X182452381Y-83111905D02*
X182452381Y-82311905D01*
X182833334Y-82311905D01*
X183023809Y-82311905D02*
X183480952Y-82311905D01*
X183252381Y-83111905D02*
X183252381Y-82311905D01*
X183747619Y-83111905D02*
X183747619Y-82311905D01*
X183938095Y-82311905D01*
X184052381Y-82350000D01*
X184128572Y-82426190D01*
X184166667Y-82502381D01*
X184204762Y-82654762D01*
X184204762Y-82769048D01*
X184166667Y-82921429D01*
X184128572Y-82997619D01*
X184052381Y-83073810D01*
X183938095Y-83111905D01*
X183747619Y-83111905D01*
X184547619Y-83111905D02*
X184547619Y-82311905D01*
X180750000Y-83378571D02*
X180750000Y-82235714D01*
X177550000Y-83111905D02*
X177550000Y-82311905D01*
X177854762Y-82311905D01*
X177930953Y-82350000D01*
X177969048Y-82388095D01*
X178007143Y-82464286D01*
X178007143Y-82578571D01*
X177969048Y-82654762D01*
X177930953Y-82692857D01*
X177854762Y-82730952D01*
X177550000Y-82730952D01*
X178350000Y-83111905D02*
X178350000Y-82311905D01*
X180750000Y-95628571D02*
X180750000Y-94485714D01*
X182719048Y-94942857D02*
X182452381Y-94942857D01*
X182452381Y-95361905D02*
X182452381Y-94561905D01*
X182833334Y-94561905D01*
X183023809Y-94561905D02*
X183480952Y-94561905D01*
X183252381Y-95361905D02*
X183252381Y-94561905D01*
X183747619Y-95361905D02*
X183747619Y-94561905D01*
X183938095Y-94561905D01*
X184052381Y-94600000D01*
X184128572Y-94676190D01*
X184166667Y-94752381D01*
X184204762Y-94904762D01*
X184204762Y-95019048D01*
X184166667Y-95171429D01*
X184128572Y-95247619D01*
X184052381Y-95323810D01*
X183938095Y-95361905D01*
X183747619Y-95361905D01*
X184547619Y-95361905D02*
X184547619Y-94561905D01*
X177600000Y-95361905D02*
X177600000Y-94561905D01*
X177904762Y-94561905D01*
X177980953Y-94600000D01*
X178019048Y-94638095D01*
X178057143Y-94714286D01*
X178057143Y-94828571D01*
X178019048Y-94904762D01*
X177980953Y-94942857D01*
X177904762Y-94980952D01*
X177600000Y-94980952D01*
X178400000Y-95361905D02*
X178400000Y-94561905D01*
X177473811Y-90311905D02*
X177092858Y-90311905D01*
X177054763Y-90692857D01*
X177092858Y-90654762D01*
X177169049Y-90616667D01*
X177359525Y-90616667D01*
X177435715Y-90654762D01*
X177473811Y-90692857D01*
X177511906Y-90769048D01*
X177511906Y-90959524D01*
X177473811Y-91035714D01*
X177435715Y-91073810D01*
X177359525Y-91111905D01*
X177169049Y-91111905D01*
X177092858Y-91073810D01*
X177054763Y-91035714D01*
X177740477Y-90311905D02*
X178007144Y-91111905D01*
X178273811Y-90311905D01*
X178540477Y-91111905D02*
X178540477Y-90311905D01*
X178921429Y-91111905D02*
X178921429Y-90311905D01*
X179378572Y-91111905D01*
X179378572Y-90311905D01*
X180635715Y-90692857D02*
X180369048Y-90692857D01*
X180369048Y-91111905D02*
X180369048Y-90311905D01*
X180750001Y-90311905D01*
X181511905Y-91111905D02*
X181245238Y-90730952D01*
X181054762Y-91111905D02*
X181054762Y-90311905D01*
X181359524Y-90311905D01*
X181435715Y-90350000D01*
X181473810Y-90388095D01*
X181511905Y-90464286D01*
X181511905Y-90578571D01*
X181473810Y-90654762D01*
X181435715Y-90692857D01*
X181359524Y-90730952D01*
X181054762Y-90730952D01*
X182007143Y-90311905D02*
X182159524Y-90311905D01*
X182235715Y-90350000D01*
X182311905Y-90426190D01*
X182350000Y-90578571D01*
X182350000Y-90845238D01*
X182311905Y-90997619D01*
X182235715Y-91073810D01*
X182159524Y-91111905D01*
X182007143Y-91111905D01*
X181930953Y-91073810D01*
X181854762Y-90997619D01*
X181816667Y-90845238D01*
X181816667Y-90578571D01*
X181854762Y-90426190D01*
X181930953Y-90350000D01*
X182007143Y-90311905D01*
X182692857Y-91111905D02*
X182692857Y-90311905D01*
X182959524Y-90883333D01*
X183226191Y-90311905D01*
X183226191Y-91111905D01*
X183607143Y-91035714D02*
X183645238Y-91073810D01*
X183607143Y-91111905D01*
X183569048Y-91073810D01*
X183607143Y-91035714D01*
X183607143Y-91111905D01*
X183607143Y-90616667D02*
X183645238Y-90654762D01*
X183607143Y-90692857D01*
X183569048Y-90654762D01*
X183607143Y-90616667D01*
X183607143Y-90692857D01*
X177502381Y-84811905D02*
X177235714Y-84430952D01*
X177045238Y-84811905D02*
X177045238Y-84011905D01*
X177350000Y-84011905D01*
X177426191Y-84050000D01*
X177464286Y-84088095D01*
X177502381Y-84164286D01*
X177502381Y-84278571D01*
X177464286Y-84354762D01*
X177426191Y-84392857D01*
X177350000Y-84430952D01*
X177045238Y-84430952D01*
X177769048Y-84011905D02*
X178302381Y-84811905D01*
X178302381Y-84011905D02*
X177769048Y-84811905D01*
X179483334Y-84392857D02*
X179216667Y-84392857D01*
X179216667Y-84811905D02*
X179216667Y-84011905D01*
X179597620Y-84011905D01*
X180359524Y-84811905D02*
X180092857Y-84430952D01*
X179902381Y-84811905D02*
X179902381Y-84011905D01*
X180207143Y-84011905D01*
X180283334Y-84050000D01*
X180321429Y-84088095D01*
X180359524Y-84164286D01*
X180359524Y-84278571D01*
X180321429Y-84354762D01*
X180283334Y-84392857D01*
X180207143Y-84430952D01*
X179902381Y-84430952D01*
X180854762Y-84011905D02*
X181007143Y-84011905D01*
X181083334Y-84050000D01*
X181159524Y-84126190D01*
X181197619Y-84278571D01*
X181197619Y-84545238D01*
X181159524Y-84697619D01*
X181083334Y-84773810D01*
X181007143Y-84811905D01*
X180854762Y-84811905D01*
X180778572Y-84773810D01*
X180702381Y-84697619D01*
X180664286Y-84545238D01*
X180664286Y-84278571D01*
X180702381Y-84126190D01*
X180778572Y-84050000D01*
X180854762Y-84011905D01*
X181540476Y-84811905D02*
X181540476Y-84011905D01*
X181807143Y-84583333D01*
X182073810Y-84011905D01*
X182073810Y-84811905D01*
X182454762Y-84735714D02*
X182492857Y-84773810D01*
X182454762Y-84811905D01*
X182416667Y-84773810D01*
X182454762Y-84735714D01*
X182454762Y-84811905D01*
X182454762Y-84316667D02*
X182492857Y-84354762D01*
X182454762Y-84392857D01*
X182416667Y-84354762D01*
X182454762Y-84316667D01*
X182454762Y-84392857D01*
X177071428Y-78011905D02*
X177528571Y-78011905D01*
X177300000Y-78811905D02*
X177300000Y-78011905D01*
X177719048Y-78011905D02*
X178252381Y-78811905D01*
X178252381Y-78011905D02*
X177719048Y-78811905D01*
X179052381Y-78011905D02*
X179509524Y-78011905D01*
X179280953Y-78811905D02*
X179280953Y-78011905D01*
X179928572Y-78011905D02*
X180080953Y-78011905D01*
X180157144Y-78050000D01*
X180233334Y-78126190D01*
X180271429Y-78278571D01*
X180271429Y-78545238D01*
X180233334Y-78697619D01*
X180157144Y-78773810D01*
X180080953Y-78811905D01*
X179928572Y-78811905D01*
X179852382Y-78773810D01*
X179776191Y-78697619D01*
X179738096Y-78545238D01*
X179738096Y-78278571D01*
X179776191Y-78126190D01*
X179852382Y-78050000D01*
X179928572Y-78011905D01*
X180614286Y-78735714D02*
X180652381Y-78773810D01*
X180614286Y-78811905D01*
X180576191Y-78773810D01*
X180614286Y-78735714D01*
X180614286Y-78811905D01*
X180614286Y-78316667D02*
X180652381Y-78354762D01*
X180614286Y-78392857D01*
X180576191Y-78354762D01*
X180614286Y-78316667D01*
X180614286Y-78392857D01*
X180750000Y-89378571D02*
X180750000Y-88235714D01*
X182719048Y-88692857D02*
X182452381Y-88692857D01*
X182452381Y-89111905D02*
X182452381Y-88311905D01*
X182833334Y-88311905D01*
X183023809Y-88311905D02*
X183480952Y-88311905D01*
X183252381Y-89111905D02*
X183252381Y-88311905D01*
X183747619Y-89111905D02*
X183747619Y-88311905D01*
X183938095Y-88311905D01*
X184052381Y-88350000D01*
X184128572Y-88426190D01*
X184166667Y-88502381D01*
X184204762Y-88654762D01*
X184204762Y-88769048D01*
X184166667Y-88921429D01*
X184128572Y-88997619D01*
X184052381Y-89073810D01*
X183938095Y-89111905D01*
X183747619Y-89111905D01*
X184547619Y-89111905D02*
X184547619Y-88311905D01*
X177600000Y-89111905D02*
X177600000Y-88311905D01*
X177904762Y-88311905D01*
X177980953Y-88350000D01*
X178019048Y-88388095D01*
X178057143Y-88464286D01*
X178057143Y-88578571D01*
X178019048Y-88654762D01*
X177980953Y-88692857D01*
X177904762Y-88730952D01*
X177600000Y-88730952D01*
X178400000Y-89111905D02*
X178400000Y-88311905D01*
D13*
X134819048Y-86195238D02*
X135200001Y-85909524D01*
X135580953Y-86195238D01*
X134819048Y-96295238D02*
X135200001Y-96009524D01*
X135580953Y-96295238D01*
X134819048Y-106595238D02*
X135200001Y-106309524D01*
X135580953Y-106595238D01*
D12*
X132938095Y-88152381D02*
X132938095Y-87152381D01*
X133319048Y-87152381D01*
X133414286Y-87200000D01*
X133461905Y-87247619D01*
X133509524Y-87342857D01*
X133509524Y-87485714D01*
X133461905Y-87580952D01*
X133414286Y-87628571D01*
X133319048Y-87676190D01*
X132938095Y-87676190D01*
X133938095Y-88152381D02*
X133938095Y-87485714D01*
X133938095Y-87152381D02*
X133890476Y-87200000D01*
X133938095Y-87247619D01*
X133985714Y-87200000D01*
X133938095Y-87152381D01*
X133938095Y-87247619D01*
X135366666Y-87152381D02*
X135557143Y-87152381D01*
X135652381Y-87200000D01*
X135747619Y-87295238D01*
X135795238Y-87485714D01*
X135795238Y-87819048D01*
X135747619Y-88009524D01*
X135652381Y-88104762D01*
X135557143Y-88152381D01*
X135366666Y-88152381D01*
X135271428Y-88104762D01*
X135176190Y-88009524D01*
X135128571Y-87819048D01*
X135128571Y-87485714D01*
X135176190Y-87295238D01*
X135271428Y-87200000D01*
X135366666Y-87152381D01*
X136557143Y-87628571D02*
X136223809Y-87628571D01*
X136223809Y-88152381D02*
X136223809Y-87152381D01*
X136700000Y-87152381D01*
X137414286Y-87628571D02*
X137080952Y-87628571D01*
X137080952Y-88152381D02*
X137080952Y-87152381D01*
X137557143Y-87152381D01*
X132890476Y-98252381D02*
X132890476Y-97252381D01*
X133271429Y-97252381D01*
X133366667Y-97300000D01*
X133414286Y-97347619D01*
X133461905Y-97442857D01*
X133461905Y-97585714D01*
X133414286Y-97680952D01*
X133366667Y-97728571D01*
X133271429Y-97776190D01*
X132890476Y-97776190D01*
X133890476Y-98252381D02*
X133890476Y-97585714D01*
X133890476Y-97252381D02*
X133842857Y-97300000D01*
X133890476Y-97347619D01*
X133938095Y-97300000D01*
X133890476Y-97252381D01*
X133890476Y-97347619D01*
X135700000Y-98252381D02*
X135366666Y-97776190D01*
X135128571Y-98252381D02*
X135128571Y-97252381D01*
X135509524Y-97252381D01*
X135604762Y-97300000D01*
X135652381Y-97347619D01*
X135700000Y-97442857D01*
X135700000Y-97585714D01*
X135652381Y-97680952D01*
X135604762Y-97728571D01*
X135509524Y-97776190D01*
X135128571Y-97776190D01*
X136128571Y-97728571D02*
X136461905Y-97728571D01*
X136604762Y-98252381D02*
X136128571Y-98252381D01*
X136128571Y-97252381D01*
X136604762Y-97252381D01*
X136985714Y-98204762D02*
X137128571Y-98252381D01*
X137366667Y-98252381D01*
X137461905Y-98204762D01*
X137509524Y-98157143D01*
X137557143Y-98061905D01*
X137557143Y-97966667D01*
X137509524Y-97871429D01*
X137461905Y-97823810D01*
X137366667Y-97776190D01*
X137176190Y-97728571D01*
X137080952Y-97680952D01*
X137033333Y-97633333D01*
X136985714Y-97538095D01*
X136985714Y-97442857D01*
X137033333Y-97347619D01*
X137080952Y-97300000D01*
X137176190Y-97252381D01*
X137414286Y-97252381D01*
X137557143Y-97300000D01*
X132133333Y-108452381D02*
X132133333Y-107452381D01*
X132466667Y-108166667D01*
X132800000Y-107452381D01*
X132800000Y-108452381D01*
X133847619Y-108357143D02*
X133800000Y-108404762D01*
X133657143Y-108452381D01*
X133561905Y-108452381D01*
X133419047Y-108404762D01*
X133323809Y-108309524D01*
X133276190Y-108214286D01*
X133228571Y-108023810D01*
X133228571Y-107880952D01*
X133276190Y-107690476D01*
X133323809Y-107595238D01*
X133419047Y-107500000D01*
X133561905Y-107452381D01*
X133657143Y-107452381D01*
X133800000Y-107500000D01*
X133847619Y-107547619D01*
X134276190Y-107452381D02*
X134276190Y-108261905D01*
X134323809Y-108357143D01*
X134371428Y-108404762D01*
X134466666Y-108452381D01*
X134657143Y-108452381D01*
X134752381Y-108404762D01*
X134800000Y-108357143D01*
X134847619Y-108261905D01*
X134847619Y-107452381D01*
X136038095Y-108166667D02*
X136514286Y-108166667D01*
X135942857Y-108452381D02*
X136276190Y-107452381D01*
X136609524Y-108452381D01*
X136942857Y-107452381D02*
X136942857Y-108261905D01*
X136990476Y-108357143D01*
X137038095Y-108404762D01*
X137133333Y-108452381D01*
X137323810Y-108452381D01*
X137419048Y-108404762D01*
X137466667Y-108357143D01*
X137514286Y-108261905D01*
X137514286Y-107452381D01*
X137895238Y-107452381D02*
X138561905Y-108452381D01*
X138561905Y-107452381D02*
X137895238Y-108452381D01*
D11*
X130347620Y-104811905D02*
X129966667Y-104811905D01*
X129928572Y-105192857D01*
X129966667Y-105154762D01*
X130042858Y-105116667D01*
X130233334Y-105116667D01*
X130309524Y-105154762D01*
X130347620Y-105192857D01*
X130385715Y-105269048D01*
X130385715Y-105459524D01*
X130347620Y-105535714D01*
X130309524Y-105573810D01*
X130233334Y-105611905D01*
X130042858Y-105611905D01*
X129966667Y-105573810D01*
X129928572Y-105535714D01*
X130614286Y-104811905D02*
X130880953Y-105611905D01*
X131147620Y-104811905D01*
X130140477Y-102100000D02*
X130064286Y-102061905D01*
X129950001Y-102061905D01*
X129835715Y-102100000D01*
X129759524Y-102176190D01*
X129721429Y-102252381D01*
X129683334Y-102404762D01*
X129683334Y-102519048D01*
X129721429Y-102671429D01*
X129759524Y-102747619D01*
X129835715Y-102823810D01*
X129950001Y-102861905D01*
X130026191Y-102861905D01*
X130140477Y-102823810D01*
X130178572Y-102785714D01*
X130178572Y-102519048D01*
X130026191Y-102519048D01*
X130521429Y-102861905D02*
X130521429Y-102061905D01*
X130978572Y-102861905D01*
X130978572Y-102061905D01*
X131359524Y-102861905D02*
X131359524Y-102061905D01*
X131550000Y-102061905D01*
X131664286Y-102100000D01*
X131740477Y-102176190D01*
X131778572Y-102252381D01*
X131816667Y-102404762D01*
X131816667Y-102519048D01*
X131778572Y-102671429D01*
X131740477Y-102747619D01*
X131664286Y-102823810D01*
X131550000Y-102861905D01*
X131359524Y-102861905D01*
X129928572Y-95133333D02*
X130309524Y-95133333D01*
X129852381Y-95361905D02*
X130119048Y-94561905D01*
X130385715Y-95361905D01*
X131071429Y-95361905D02*
X130614286Y-95361905D01*
X130842857Y-95361905D02*
X130842857Y-94561905D01*
X130766667Y-94676190D01*
X130690476Y-94752381D01*
X130614286Y-94790476D01*
X129928572Y-97633333D02*
X130309524Y-97633333D01*
X129852381Y-97861905D02*
X130119048Y-97061905D01*
X130385715Y-97861905D01*
X130804762Y-97061905D02*
X130880953Y-97061905D01*
X130957143Y-97100000D01*
X130995238Y-97138095D01*
X131033334Y-97214286D01*
X131071429Y-97366667D01*
X131071429Y-97557143D01*
X131033334Y-97709524D01*
X130995238Y-97785714D01*
X130957143Y-97823810D01*
X130880953Y-97861905D01*
X130804762Y-97861905D01*
X130728572Y-97823810D01*
X130690476Y-97785714D01*
X130652381Y-97709524D01*
X130614286Y-97557143D01*
X130614286Y-97366667D01*
X130652381Y-97214286D01*
X130690476Y-97138095D01*
X130728572Y-97100000D01*
X130804762Y-97061905D01*
X129928572Y-92633333D02*
X130309524Y-92633333D01*
X129852381Y-92861905D02*
X130119048Y-92061905D01*
X130385715Y-92861905D01*
X130614286Y-92138095D02*
X130652381Y-92100000D01*
X130728572Y-92061905D01*
X130919048Y-92061905D01*
X130995238Y-92100000D01*
X131033334Y-92138095D01*
X131071429Y-92214286D01*
X131071429Y-92290476D01*
X131033334Y-92404762D01*
X130576191Y-92861905D01*
X131071429Y-92861905D01*
X129909524Y-90361905D02*
X129909524Y-89561905D01*
X130100000Y-89561905D01*
X130214286Y-89600000D01*
X130290477Y-89676190D01*
X130328572Y-89752381D01*
X130366667Y-89904762D01*
X130366667Y-90019048D01*
X130328572Y-90171429D01*
X130290477Y-90247619D01*
X130214286Y-90323810D01*
X130100000Y-90361905D01*
X129909524Y-90361905D01*
X130633334Y-89561905D02*
X131128572Y-89561905D01*
X130861905Y-89866667D01*
X130976191Y-89866667D01*
X131052381Y-89904762D01*
X131090477Y-89942857D01*
X131128572Y-90019048D01*
X131128572Y-90209524D01*
X131090477Y-90285714D01*
X131052381Y-90323810D01*
X130976191Y-90361905D01*
X130747619Y-90361905D01*
X130671429Y-90323810D01*
X130633334Y-90285714D01*
X129909524Y-87611905D02*
X129909524Y-86811905D01*
X130100000Y-86811905D01*
X130214286Y-86850000D01*
X130290477Y-86926190D01*
X130328572Y-87002381D01*
X130366667Y-87154762D01*
X130366667Y-87269048D01*
X130328572Y-87421429D01*
X130290477Y-87497619D01*
X130214286Y-87573810D01*
X130100000Y-87611905D01*
X129909524Y-87611905D01*
X131090477Y-86811905D02*
X130709524Y-86811905D01*
X130671429Y-87192857D01*
X130709524Y-87154762D01*
X130785715Y-87116667D01*
X130976191Y-87116667D01*
X131052381Y-87154762D01*
X131090477Y-87192857D01*
X131128572Y-87269048D01*
X131128572Y-87459524D01*
X131090477Y-87535714D01*
X131052381Y-87573810D01*
X130976191Y-87611905D01*
X130785715Y-87611905D01*
X130709524Y-87573810D01*
X130671429Y-87535714D01*
X129909524Y-85111905D02*
X129909524Y-84311905D01*
X130100000Y-84311905D01*
X130214286Y-84350000D01*
X130290477Y-84426190D01*
X130328572Y-84502381D01*
X130366667Y-84654762D01*
X130366667Y-84769048D01*
X130328572Y-84921429D01*
X130290477Y-84997619D01*
X130214286Y-85073810D01*
X130100000Y-85111905D01*
X129909524Y-85111905D01*
X130633334Y-84311905D02*
X131166667Y-84311905D01*
X130823810Y-85111905D01*
X165695238Y-84557143D02*
X166304762Y-84557143D01*
X166000000Y-84861905D02*
X166000000Y-84252381D01*
D14*
X174314286Y-96500000D02*
X174409524Y-96404761D01*
X174504762Y-96500000D01*
X174409524Y-96595238D01*
X174314286Y-96500000D01*
X174504762Y-96500000D01*
D11*
X144750000Y-114750000D02*
X147750000Y-111750000D01*
X144000000Y-114750000D02*
X147750000Y-111000000D01*
X146000000Y-110500000D02*
X146250000Y-110500000D01*
X143250000Y-113250000D02*
X146000000Y-110500000D01*
X143250000Y-114000000D02*
X146750000Y-110500000D01*
X147500000Y-110500000D02*
X147750000Y-110500000D01*
X143250000Y-114750000D02*
X147500000Y-110500000D01*
X147750000Y-110500000D02*
X147750000Y-114750000D01*
X143250000Y-110500000D02*
X147750000Y-110500000D01*
X143250000Y-114750000D02*
X143250000Y-110500000D01*
X147750000Y-114750000D02*
X143250000Y-114750000D01*
D13*
X121450000Y-88426190D02*
X121392857Y-88609524D01*
X121392857Y-88895238D01*
X121450000Y-89188095D01*
X121564286Y-89392857D01*
X121678571Y-89502381D01*
X121907143Y-89626191D01*
X122078571Y-89647619D01*
X122307143Y-89580953D01*
X122421429Y-89500000D01*
X122535714Y-89323809D01*
X122592857Y-89045238D01*
X122592857Y-88854762D01*
X122535714Y-88561904D01*
X122478571Y-88459523D01*
X122078571Y-88409523D01*
X122078571Y-88790476D01*
X122250000Y-87669048D02*
X122250000Y-86716667D01*
X122592857Y-87902381D02*
X121392857Y-87085714D01*
X122592857Y-86569047D01*
X121392857Y-86038095D02*
X121392857Y-84895238D01*
X122592857Y-85616666D02*
X121392857Y-85466666D01*
X121964286Y-84300000D02*
X121964286Y-83633333D01*
X122592857Y-83426190D02*
X122592857Y-84378571D01*
X121392857Y-84228571D01*
X121392857Y-83276190D01*
X121392857Y-82609523D02*
X122592857Y-82283332D01*
X121735714Y-81795237D01*
X122592857Y-81521427D01*
X121392857Y-80895237D01*
X122250000Y-80335714D02*
X122250000Y-79383333D01*
X122592857Y-80569047D02*
X121392857Y-79752380D01*
X122592857Y-79235713D01*
X122021429Y-78116666D02*
X122592857Y-78188094D01*
X121392857Y-78704761D02*
X122021429Y-78116666D01*
X121392857Y-77371427D01*
X124692857Y-88473809D02*
X124121429Y-89069048D01*
X124692857Y-89616667D02*
X123492857Y-89466667D01*
X123492857Y-88704762D01*
X123550000Y-88521429D01*
X123607143Y-88433333D01*
X123721429Y-88352381D01*
X123892857Y-88373809D01*
X124007143Y-88483333D01*
X124064286Y-88585715D01*
X124121429Y-88783334D01*
X124121429Y-89545239D01*
X124692857Y-86569047D02*
X124692857Y-87711905D01*
X124692857Y-87140476D02*
X123492857Y-86990476D01*
X123664286Y-87202381D01*
X123778571Y-87407142D01*
X123835714Y-87604762D01*
D11*
X171714286Y-121142857D02*
X171428571Y-121904762D01*
X171142857Y-121142857D01*
X170714286Y-122619047D02*
X172142857Y-122619047D01*
D14*
X153114286Y-124500000D02*
X153209524Y-124404761D01*
X153304762Y-124500000D01*
X153209524Y-124595238D01*
X153114286Y-124500000D01*
X153304762Y-124500000D01*
D11*
X179807143Y-118240475D02*
X179807143Y-117630951D01*
X179807143Y-117249999D02*
X179807143Y-116640475D01*
X179807143Y-116259523D02*
X179807143Y-115649999D01*
X179807143Y-115269047D02*
X179807143Y-114659523D01*
X179807143Y-114278571D02*
X179807143Y-113669047D01*
X179807143Y-113288095D02*
X179807143Y-112678571D01*
X179692857Y-112030952D02*
X179692857Y-112297619D01*
X180111905Y-112297619D02*
X179311905Y-112297619D01*
X179311905Y-111916666D01*
X179311905Y-111726191D02*
X179311905Y-111269048D01*
X180111905Y-111497619D02*
X179311905Y-111497619D01*
X180111905Y-111002381D02*
X179311905Y-111002381D01*
X179311905Y-110811905D01*
X179350000Y-110697619D01*
X179426190Y-110621428D01*
X179502381Y-110583333D01*
X179654762Y-110545238D01*
X179769048Y-110545238D01*
X179921429Y-110583333D01*
X179997619Y-110621428D01*
X180073810Y-110697619D01*
X180111905Y-110811905D01*
X180111905Y-111002381D01*
X180111905Y-110202381D02*
X179311905Y-110202381D01*
X179807143Y-109821429D02*
X179807143Y-109211905D01*
X179807143Y-108830953D02*
X179807143Y-108221429D01*
X179807143Y-107840477D02*
X179807143Y-107230953D01*
X179807143Y-106850001D02*
X179807143Y-106240477D01*
X179807143Y-105859525D02*
X179807143Y-105250001D01*
X179807143Y-104869049D02*
X179807143Y-104259525D01*
X129909524Y-82611905D02*
X129909524Y-81811905D01*
X130100000Y-81811905D01*
X130214286Y-81850000D01*
X130290477Y-81926190D01*
X130328572Y-82002381D01*
X130366667Y-82154762D01*
X130366667Y-82269048D01*
X130328572Y-82421429D01*
X130290477Y-82497619D01*
X130214286Y-82573810D01*
X130100000Y-82611905D01*
X129909524Y-82611905D01*
X130823810Y-82154762D02*
X130747619Y-82116667D01*
X130709524Y-82078571D01*
X130671429Y-82002381D01*
X130671429Y-81964286D01*
X130709524Y-81888095D01*
X130747619Y-81850000D01*
X130823810Y-81811905D01*
X130976191Y-81811905D01*
X131052381Y-81850000D01*
X131090477Y-81888095D01*
X131128572Y-81964286D01*
X131128572Y-82002381D01*
X131090477Y-82078571D01*
X131052381Y-82116667D01*
X130976191Y-82154762D01*
X130823810Y-82154762D01*
X130747619Y-82192857D01*
X130709524Y-82230952D01*
X130671429Y-82307143D01*
X130671429Y-82459524D01*
X130709524Y-82535714D01*
X130747619Y-82573810D01*
X130823810Y-82611905D01*
X130976191Y-82611905D01*
X131052381Y-82573810D01*
X131090477Y-82535714D01*
X131128572Y-82459524D01*
X131128572Y-82307143D01*
X131090477Y-82230952D01*
X131052381Y-82192857D01*
X130976191Y-82154762D01*
X129759524Y-99561905D02*
X130254762Y-99561905D01*
X129988095Y-99866667D01*
X130102381Y-99866667D01*
X130178571Y-99904762D01*
X130216667Y-99942857D01*
X130254762Y-100019048D01*
X130254762Y-100209524D01*
X130216667Y-100285714D01*
X130178571Y-100323810D01*
X130102381Y-100361905D01*
X129873809Y-100361905D01*
X129797619Y-100323810D01*
X129759524Y-100285714D01*
X130483333Y-99561905D02*
X130750000Y-100361905D01*
X131016667Y-99561905D01*
X131207143Y-99561905D02*
X131702381Y-99561905D01*
X131435714Y-99866667D01*
X131550000Y-99866667D01*
X131626190Y-99904762D01*
X131664286Y-99942857D01*
X131702381Y-100019048D01*
X131702381Y-100209524D01*
X131664286Y-100285714D01*
X131626190Y-100323810D01*
X131550000Y-100361905D01*
X131321428Y-100361905D01*
X131245238Y-100323810D01*
X131207143Y-100285714D01*
X181461905Y-105438095D02*
X181080952Y-105704762D01*
X181461905Y-105895238D02*
X180661905Y-105895238D01*
X180661905Y-105590476D01*
X180700000Y-105514285D01*
X180738095Y-105476190D01*
X180814286Y-105438095D01*
X180928571Y-105438095D01*
X181004762Y-105476190D01*
X181042857Y-105514285D01*
X181080952Y-105590476D01*
X181080952Y-105895238D01*
X180661905Y-105209524D02*
X180661905Y-104752381D01*
X181461905Y-104980952D02*
X180661905Y-104980952D01*
X181423810Y-104523809D02*
X181461905Y-104409523D01*
X181461905Y-104219047D01*
X181423810Y-104142857D01*
X181385714Y-104104761D01*
X181309524Y-104066666D01*
X181233333Y-104066666D01*
X181157143Y-104104761D01*
X181119048Y-104142857D01*
X181080952Y-104219047D01*
X181042857Y-104371428D01*
X181004762Y-104447619D01*
X180966667Y-104485714D01*
X180890476Y-104523809D01*
X180814286Y-104523809D01*
X180738095Y-104485714D01*
X180700000Y-104447619D01*
X180661905Y-104371428D01*
X180661905Y-104180952D01*
X180700000Y-104066666D01*
X181461905Y-107733333D02*
X181080952Y-108000000D01*
X181461905Y-108190476D02*
X180661905Y-108190476D01*
X180661905Y-107885714D01*
X180700000Y-107809523D01*
X180738095Y-107771428D01*
X180814286Y-107733333D01*
X180928571Y-107733333D01*
X181004762Y-107771428D01*
X181042857Y-107809523D01*
X181080952Y-107885714D01*
X181080952Y-108190476D01*
X180661905Y-107466666D02*
X181461905Y-106933333D01*
X180661905Y-106933333D02*
X181461905Y-107466666D01*
X180661905Y-110709524D02*
X180661905Y-110252381D01*
X181461905Y-110480952D02*
X180661905Y-110480952D01*
X180661905Y-110061904D02*
X181461905Y-109528571D01*
X180661905Y-109528571D02*
X181461905Y-110061904D01*
X180661905Y-113666667D02*
X181461905Y-113400000D01*
X180661905Y-113133333D01*
X181385714Y-112409524D02*
X181423810Y-112447619D01*
X181461905Y-112561905D01*
X181461905Y-112638095D01*
X181423810Y-112752381D01*
X181347619Y-112828572D01*
X181271429Y-112866667D01*
X181119048Y-112904762D01*
X181004762Y-112904762D01*
X180852381Y-112866667D01*
X180776190Y-112828572D01*
X180700000Y-112752381D01*
X180661905Y-112638095D01*
X180661905Y-112561905D01*
X180700000Y-112447619D01*
X180738095Y-112409524D01*
X181385714Y-111609524D02*
X181423810Y-111647619D01*
X181461905Y-111761905D01*
X181461905Y-111838095D01*
X181423810Y-111952381D01*
X181347619Y-112028572D01*
X181271429Y-112066667D01*
X181119048Y-112104762D01*
X181004762Y-112104762D01*
X180852381Y-112066667D01*
X180776190Y-112028572D01*
X180700000Y-111952381D01*
X180661905Y-111838095D01*
X180661905Y-111761905D01*
X180700000Y-111647619D01*
X180738095Y-111609524D01*
X181728571Y-118100000D02*
X180585714Y-118100000D01*
X180700000Y-117109523D02*
X180661905Y-117185714D01*
X180661905Y-117299999D01*
X180700000Y-117414285D01*
X180776190Y-117490476D01*
X180852381Y-117528571D01*
X181004762Y-117566666D01*
X181119048Y-117566666D01*
X181271429Y-117528571D01*
X181347619Y-117490476D01*
X181423810Y-117414285D01*
X181461905Y-117299999D01*
X181461905Y-117223809D01*
X181423810Y-117109523D01*
X181385714Y-117071428D01*
X181119048Y-117071428D01*
X181119048Y-117223809D01*
X181461905Y-116728571D02*
X180661905Y-116728571D01*
X181461905Y-116271428D01*
X180661905Y-116271428D01*
X181461905Y-115890476D02*
X180661905Y-115890476D01*
X180661905Y-115700000D01*
X180700000Y-115585714D01*
X180776190Y-115509523D01*
X180852381Y-115471428D01*
X181004762Y-115433333D01*
X181119048Y-115433333D01*
X181271429Y-115471428D01*
X181347619Y-115509523D01*
X181423810Y-115585714D01*
X181461905Y-115700000D01*
X181461905Y-115890476D01*
X181728571Y-114900000D02*
X180585714Y-114900000D01*
D15*
X139930000Y-85630000D02*
X139930000Y-80550000D01*
X139930000Y-80550000D02*
X142470000Y-80550000D01*
X142470000Y-80550000D02*
X142470000Y-85630000D01*
X142470000Y-85630000D02*
X139930000Y-85630000D01*
D16*
X167110000Y-91560000D02*
X161890000Y-91560000D01*
X167110000Y-88240000D02*
X161890000Y-88240000D01*
X167110000Y-91560000D02*
X167110000Y-90896000D01*
X167110000Y-88904000D02*
X167110000Y-88240000D01*
X161890000Y-91560000D02*
X161890000Y-90896000D01*
X161890000Y-88904000D02*
X161890000Y-88240000D01*
X156890000Y-109840000D02*
X162110000Y-109840000D01*
X156890000Y-113160000D02*
X162110000Y-113160000D01*
X156890000Y-109840000D02*
X156890000Y-110504000D01*
X156890000Y-112496000D02*
X156890000Y-113160000D01*
X162110000Y-109840000D02*
X162110000Y-110504000D01*
X162110000Y-112496000D02*
X162110000Y-113160000D01*
X160590000Y-121860000D02*
X160590000Y-116640000D01*
X163910000Y-121860000D02*
X163910000Y-116640000D01*
X160590000Y-121860000D02*
X161254000Y-121860000D01*
X163246000Y-121860000D02*
X163910000Y-121860000D01*
X160590000Y-116640000D02*
X161254000Y-116640000D01*
X163246000Y-116640000D02*
X163910000Y-116640000D01*
X155340000Y-121860000D02*
X155340000Y-116640000D01*
X158660000Y-121860000D02*
X158660000Y-116640000D01*
X155340000Y-121860000D02*
X156004000Y-121860000D01*
X157996000Y-121860000D02*
X158660000Y-121860000D01*
X155340000Y-116640000D02*
X156004000Y-116640000D01*
X157996000Y-116640000D02*
X158660000Y-116640000D01*
X170320000Y-123370000D02*
X170140000Y-123370000D01*
X170140000Y-123370000D02*
X170140000Y-120050000D01*
X170140000Y-120050000D02*
X170320000Y-120050000D01*
X172680000Y-123370000D02*
X172860000Y-123370000D01*
X172860000Y-123370000D02*
X172860000Y-120050000D01*
X172860000Y-120050000D02*
X172680000Y-120050000D01*
X170140000Y-122830000D02*
X172860000Y-122830000D01*
X184890000Y-116480000D02*
X184890000Y-103660000D01*
X184890000Y-103660000D02*
X182110000Y-103660000D01*
X182110000Y-103660000D02*
X182110000Y-116480000D01*
X182110000Y-116480000D02*
X184890000Y-116480000D01*
X184890000Y-117750000D02*
X184890000Y-119140000D01*
X184890000Y-119140000D02*
X183500000Y-119140000D01*
D15*
X146730000Y-85630000D02*
X146730000Y-80550000D01*
X146730000Y-80550000D02*
X149270000Y-80550000D01*
X149270000Y-80550000D02*
X149270000Y-85630000D01*
X149270000Y-85630000D02*
X146730000Y-85630000D01*
X150130000Y-85630000D02*
X150130000Y-80550000D01*
X150130000Y-80550000D02*
X152670000Y-80550000D01*
X152670000Y-80550000D02*
X152670000Y-85630000D01*
X152670000Y-85630000D02*
X150130000Y-85630000D01*
X168520000Y-118020000D02*
X168520000Y-123100000D01*
X168520000Y-123100000D02*
X165980000Y-123100000D01*
X165980000Y-123100000D02*
X165980000Y-118020000D01*
X165980000Y-118020000D02*
X168520000Y-118020000D01*
X168930000Y-91430000D02*
X168930000Y-86350000D01*
X168930000Y-86350000D02*
X171470000Y-86350000D01*
X171470000Y-86350000D02*
X171470000Y-91430000D01*
X171470000Y-91430000D02*
X168930000Y-91430000D01*
X143330000Y-85630000D02*
X143330000Y-80550000D01*
X143330000Y-80550000D02*
X145870000Y-80550000D01*
X145870000Y-80550000D02*
X145870000Y-85630000D01*
X145870000Y-85630000D02*
X143330000Y-85630000D01*
X174870000Y-86370000D02*
X174870000Y-91450000D01*
X174870000Y-91450000D02*
X172330000Y-91450000D01*
X172330000Y-91450000D02*
X172330000Y-86370000D01*
X172330000Y-86370000D02*
X174870000Y-86370000D01*
X162570000Y-82400000D02*
X165970000Y-82400000D01*
X162572944Y-82397056D02*
G75*
G02X164270000Y-78300000I1697056J1697056D01*
G01*
X165967056Y-82397056D02*
G75*
G03X164270000Y-78300000I-1697056J1697056D01*
G01*
D16*
X175790000Y-103510000D02*
G75*
G02X175790000Y-101510000I0J1000000D01*
G01*
X175790000Y-101510000D02*
X175790000Y-100140000D01*
X175790000Y-100140000D02*
X139990000Y-100140000D01*
X139990000Y-100140000D02*
X139990000Y-104880000D01*
X139990000Y-104880000D02*
X175790000Y-104880000D01*
X175790000Y-104880000D02*
X175790000Y-103510000D01*
X175790000Y-97310000D02*
X139990000Y-97310000D01*
X139990000Y-97310000D02*
X139990000Y-107710000D01*
X139990000Y-107710000D02*
X175790000Y-107710000D01*
X175790000Y-107710000D02*
X175790000Y-97310000D01*
X155300000Y-90900000D02*
G75*
G02X155300000Y-96300000I0J-2700000D01*
G01*
X150300000Y-90900000D02*
G75*
G03X150300000Y-96300000I0J-2700000D01*
G01*
X155300000Y-96300000D02*
X150300000Y-96300000D01*
X155300000Y-90900000D02*
X150300000Y-90900000D01*
X167110000Y-87160000D02*
X161890000Y-87160000D01*
X167110000Y-83840000D02*
X161890000Y-83840000D01*
X167110000Y-87160000D02*
X167110000Y-86496000D01*
X167110000Y-84504000D02*
X167110000Y-83840000D01*
X161890000Y-87160000D02*
X161890000Y-86496000D01*
X161890000Y-84504000D02*
X161890000Y-83840000D01*
D15*
X123800000Y-113200000D02*
X123800000Y-113800000D01*
X123800000Y-111200000D02*
X123800000Y-111800000D01*
X121200000Y-111200000D02*
X121200000Y-113800000D01*
D16*
X174340000Y-124360000D02*
X174340000Y-119140000D01*
X177660000Y-124360000D02*
X177660000Y-119140000D01*
X174340000Y-124360000D02*
X175004000Y-124360000D01*
X176996000Y-124360000D02*
X177660000Y-124360000D01*
X174340000Y-119140000D02*
X175004000Y-119140000D01*
X176996000Y-119140000D02*
X177660000Y-119140000D01*
X157381400Y-85546863D02*
G75*
G03X157380000Y-80752564I-981400J2396863D01*
G01*
X155418600Y-85546863D02*
G75*
G02X155420000Y-80752564I981400J2396863D01*
G01*
X155418600Y-85546863D02*
G75*
G03X157380000Y-85547436I981400J2396863D01*
G01*
X158950000Y-83150000D02*
X153850000Y-83150000D01*
X158950000Y-83190000D02*
X153850000Y-83190000D01*
X158949000Y-83230000D02*
X153851000Y-83230000D01*
X158948000Y-83270000D02*
X153852000Y-83270000D01*
X158946000Y-83310000D02*
X153854000Y-83310000D01*
X158943000Y-83350000D02*
X153857000Y-83350000D01*
X158939000Y-83390000D02*
X153861000Y-83390000D01*
X158935000Y-83430000D02*
X157380000Y-83430000D01*
X155420000Y-83430000D02*
X153865000Y-83430000D01*
X158931000Y-83470000D02*
X157380000Y-83470000D01*
X155420000Y-83470000D02*
X153869000Y-83470000D01*
X158925000Y-83510000D02*
X157380000Y-83510000D01*
X155420000Y-83510000D02*
X153875000Y-83510000D01*
X158919000Y-83550000D02*
X157380000Y-83550000D01*
X155420000Y-83550000D02*
X153881000Y-83550000D01*
X158913000Y-83590000D02*
X157380000Y-83590000D01*
X155420000Y-83590000D02*
X153887000Y-83590000D01*
X158906000Y-83630000D02*
X157380000Y-83630000D01*
X155420000Y-83630000D02*
X153894000Y-83630000D01*
X158898000Y-83670000D02*
X157380000Y-83670000D01*
X155420000Y-83670000D02*
X153902000Y-83670000D01*
X158889000Y-83710000D02*
X157380000Y-83710000D01*
X155420000Y-83710000D02*
X153911000Y-83710000D01*
X158880000Y-83750000D02*
X157380000Y-83750000D01*
X155420000Y-83750000D02*
X153920000Y-83750000D01*
X158870000Y-83790000D02*
X157380000Y-83790000D01*
X155420000Y-83790000D02*
X153930000Y-83790000D01*
X158860000Y-83830000D02*
X157380000Y-83830000D01*
X155420000Y-83830000D02*
X153940000Y-83830000D01*
X158848000Y-83871000D02*
X157380000Y-83871000D01*
X155420000Y-83871000D02*
X153952000Y-83871000D01*
X158836000Y-83911000D02*
X157380000Y-83911000D01*
X155420000Y-83911000D02*
X153964000Y-83911000D01*
X158824000Y-83951000D02*
X157380000Y-83951000D01*
X155420000Y-83951000D02*
X153976000Y-83951000D01*
X158810000Y-83991000D02*
X157380000Y-83991000D01*
X155420000Y-83991000D02*
X153990000Y-83991000D01*
X158796000Y-84031000D02*
X157380000Y-84031000D01*
X155420000Y-84031000D02*
X154004000Y-84031000D01*
X158782000Y-84071000D02*
X157380000Y-84071000D01*
X155420000Y-84071000D02*
X154018000Y-84071000D01*
X158766000Y-84111000D02*
X157380000Y-84111000D01*
X155420000Y-84111000D02*
X154034000Y-84111000D01*
X158750000Y-84151000D02*
X157380000Y-84151000D01*
X155420000Y-84151000D02*
X154050000Y-84151000D01*
X158733000Y-84191000D02*
X157380000Y-84191000D01*
X155420000Y-84191000D02*
X154067000Y-84191000D01*
X158715000Y-84231000D02*
X157380000Y-84231000D01*
X155420000Y-84231000D02*
X154085000Y-84231000D01*
X158696000Y-84271000D02*
X157380000Y-84271000D01*
X155420000Y-84271000D02*
X154104000Y-84271000D01*
X158676000Y-84311000D02*
X157380000Y-84311000D01*
X155420000Y-84311000D02*
X154124000Y-84311000D01*
X158656000Y-84351000D02*
X157380000Y-84351000D01*
X155420000Y-84351000D02*
X154144000Y-84351000D01*
X158634000Y-84391000D02*
X157380000Y-84391000D01*
X155420000Y-84391000D02*
X154166000Y-84391000D01*
X158612000Y-84431000D02*
X157380000Y-84431000D01*
X155420000Y-84431000D02*
X154188000Y-84431000D01*
X158589000Y-84471000D02*
X157380000Y-84471000D01*
X155420000Y-84471000D02*
X154211000Y-84471000D01*
X158565000Y-84511000D02*
X157380000Y-84511000D01*
X155420000Y-84511000D02*
X154235000Y-84511000D01*
X158540000Y-84551000D02*
X157380000Y-84551000D01*
X155420000Y-84551000D02*
X154260000Y-84551000D01*
X158513000Y-84591000D02*
X157380000Y-84591000D01*
X155420000Y-84591000D02*
X154287000Y-84591000D01*
X158486000Y-84631000D02*
X157380000Y-84631000D01*
X155420000Y-84631000D02*
X154314000Y-84631000D01*
X158458000Y-84671000D02*
X157380000Y-84671000D01*
X155420000Y-84671000D02*
X154342000Y-84671000D01*
X158428000Y-84711000D02*
X157380000Y-84711000D01*
X155420000Y-84711000D02*
X154372000Y-84711000D01*
X158397000Y-84751000D02*
X157380000Y-84751000D01*
X155420000Y-84751000D02*
X154403000Y-84751000D01*
X158365000Y-84791000D02*
X157380000Y-84791000D01*
X155420000Y-84791000D02*
X154435000Y-84791000D01*
X158332000Y-84831000D02*
X157380000Y-84831000D01*
X155420000Y-84831000D02*
X154468000Y-84831000D01*
X158297000Y-84871000D02*
X157380000Y-84871000D01*
X155420000Y-84871000D02*
X154503000Y-84871000D01*
X158261000Y-84911000D02*
X157380000Y-84911000D01*
X155420000Y-84911000D02*
X154539000Y-84911000D01*
X158223000Y-84951000D02*
X157380000Y-84951000D01*
X155420000Y-84951000D02*
X154577000Y-84951000D01*
X158183000Y-84991000D02*
X157380000Y-84991000D01*
X155420000Y-84991000D02*
X154617000Y-84991000D01*
X158142000Y-85031000D02*
X157380000Y-85031000D01*
X155420000Y-85031000D02*
X154658000Y-85031000D01*
X158099000Y-85071000D02*
X157380000Y-85071000D01*
X155420000Y-85071000D02*
X154701000Y-85071000D01*
X158054000Y-85111000D02*
X157380000Y-85111000D01*
X155420000Y-85111000D02*
X154746000Y-85111000D01*
X158006000Y-85151000D02*
X157380000Y-85151000D01*
X155420000Y-85151000D02*
X154794000Y-85151000D01*
X157956000Y-85191000D02*
X157380000Y-85191000D01*
X155420000Y-85191000D02*
X154844000Y-85191000D01*
X157904000Y-85231000D02*
X157380000Y-85231000D01*
X155420000Y-85231000D02*
X154896000Y-85231000D01*
X157848000Y-85271000D02*
X157380000Y-85271000D01*
X155420000Y-85271000D02*
X154952000Y-85271000D01*
X157790000Y-85311000D02*
X157380000Y-85311000D01*
X155420000Y-85311000D02*
X155010000Y-85311000D01*
X157727000Y-85351000D02*
X157380000Y-85351000D01*
X155420000Y-85351000D02*
X155073000Y-85351000D01*
X157661000Y-85391000D02*
X155139000Y-85391000D01*
X157589000Y-85431000D02*
X155211000Y-85431000D01*
X157512000Y-85471000D02*
X155288000Y-85471000D01*
X157428000Y-85511000D02*
X155372000Y-85511000D01*
X157334000Y-85551000D02*
X155466000Y-85551000D01*
X157229000Y-85591000D02*
X155571000Y-85591000D01*
X157107000Y-85631000D02*
X155693000Y-85631000D01*
X156959000Y-85671000D02*
X155841000Y-85671000D01*
X156754000Y-85711000D02*
X156046000Y-85711000D01*
X156400000Y-79700000D02*
X156400000Y-80900000D01*
X157050000Y-80300000D02*
X155750000Y-80300000D01*
X173079089Y-82639361D02*
G75*
G03X173080000Y-78761005I-779089J1939361D01*
G01*
X171520911Y-82639361D02*
G75*
G02X171520000Y-78761005I779089J1939361D01*
G01*
X171520911Y-82639361D02*
G75*
G03X173080000Y-82638995I779089J1939361D01*
G01*
X174350000Y-80700000D02*
X170250000Y-80700000D01*
X174350000Y-80740000D02*
X170250000Y-80740000D01*
X174349000Y-80780000D02*
X170251000Y-80780000D01*
X174347000Y-80820000D02*
X170253000Y-80820000D01*
X174344000Y-80860000D02*
X170256000Y-80860000D01*
X174341000Y-80900000D02*
X170259000Y-80900000D01*
X174337000Y-80940000D02*
X173080000Y-80940000D01*
X171520000Y-80940000D02*
X170263000Y-80940000D01*
X174332000Y-80980000D02*
X173080000Y-80980000D01*
X171520000Y-80980000D02*
X170268000Y-80980000D01*
X174326000Y-81020000D02*
X173080000Y-81020000D01*
X171520000Y-81020000D02*
X170274000Y-81020000D01*
X174319000Y-81060000D02*
X173080000Y-81060000D01*
X171520000Y-81060000D02*
X170281000Y-81060000D01*
X174312000Y-81100000D02*
X173080000Y-81100000D01*
X171520000Y-81100000D02*
X170288000Y-81100000D01*
X174304000Y-81140000D02*
X173080000Y-81140000D01*
X171520000Y-81140000D02*
X170296000Y-81140000D01*
X174295000Y-81180000D02*
X173080000Y-81180000D01*
X171520000Y-81180000D02*
X170305000Y-81180000D01*
X174285000Y-81220000D02*
X173080000Y-81220000D01*
X171520000Y-81220000D02*
X170315000Y-81220000D01*
X174274000Y-81260000D02*
X173080000Y-81260000D01*
X171520000Y-81260000D02*
X170326000Y-81260000D01*
X174263000Y-81300000D02*
X173080000Y-81300000D01*
X171520000Y-81300000D02*
X170337000Y-81300000D01*
X174250000Y-81340000D02*
X173080000Y-81340000D01*
X171520000Y-81340000D02*
X170350000Y-81340000D01*
X174237000Y-81380000D02*
X173080000Y-81380000D01*
X171520000Y-81380000D02*
X170363000Y-81380000D01*
X174223000Y-81421000D02*
X173080000Y-81421000D01*
X171520000Y-81421000D02*
X170377000Y-81421000D01*
X174207000Y-81461000D02*
X173080000Y-81461000D01*
X171520000Y-81461000D02*
X170393000Y-81461000D01*
X174191000Y-81501000D02*
X173080000Y-81501000D01*
X171520000Y-81501000D02*
X170409000Y-81501000D01*
X174174000Y-81541000D02*
X173080000Y-81541000D01*
X171520000Y-81541000D02*
X170426000Y-81541000D01*
X174156000Y-81581000D02*
X173080000Y-81581000D01*
X171520000Y-81581000D02*
X170444000Y-81581000D01*
X174137000Y-81621000D02*
X173080000Y-81621000D01*
X171520000Y-81621000D02*
X170463000Y-81621000D01*
X174117000Y-81661000D02*
X173080000Y-81661000D01*
X171520000Y-81661000D02*
X170483000Y-81661000D01*
X174096000Y-81701000D02*
X173080000Y-81701000D01*
X171520000Y-81701000D02*
X170504000Y-81701000D01*
X174073000Y-81741000D02*
X173080000Y-81741000D01*
X171520000Y-81741000D02*
X170527000Y-81741000D01*
X174050000Y-81781000D02*
X173080000Y-81781000D01*
X171520000Y-81781000D02*
X170550000Y-81781000D01*
X174025000Y-81821000D02*
X173080000Y-81821000D01*
X171520000Y-81821000D02*
X170575000Y-81821000D01*
X173999000Y-81861000D02*
X173080000Y-81861000D01*
X171520000Y-81861000D02*
X170601000Y-81861000D01*
X173972000Y-81901000D02*
X173080000Y-81901000D01*
X171520000Y-81901000D02*
X170628000Y-81901000D01*
X173943000Y-81941000D02*
X173080000Y-81941000D01*
X171520000Y-81941000D02*
X170657000Y-81941000D01*
X173913000Y-81981000D02*
X173080000Y-81981000D01*
X171520000Y-81981000D02*
X170687000Y-81981000D01*
X173881000Y-82021000D02*
X173080000Y-82021000D01*
X171520000Y-82021000D02*
X170719000Y-82021000D01*
X173847000Y-82061000D02*
X173080000Y-82061000D01*
X171520000Y-82061000D02*
X170753000Y-82061000D01*
X173812000Y-82101000D02*
X173080000Y-82101000D01*
X171520000Y-82101000D02*
X170788000Y-82101000D01*
X173775000Y-82141000D02*
X173080000Y-82141000D01*
X171520000Y-82141000D02*
X170825000Y-82141000D01*
X173736000Y-82181000D02*
X173080000Y-82181000D01*
X171520000Y-82181000D02*
X170864000Y-82181000D01*
X173695000Y-82221000D02*
X173080000Y-82221000D01*
X171520000Y-82221000D02*
X170905000Y-82221000D01*
X173651000Y-82261000D02*
X173080000Y-82261000D01*
X171520000Y-82261000D02*
X170949000Y-82261000D01*
X173605000Y-82301000D02*
X173080000Y-82301000D01*
X171520000Y-82301000D02*
X170995000Y-82301000D01*
X173556000Y-82341000D02*
X173080000Y-82341000D01*
X171520000Y-82341000D02*
X171044000Y-82341000D01*
X173504000Y-82381000D02*
X173080000Y-82381000D01*
X171520000Y-82381000D02*
X171096000Y-82381000D01*
X173448000Y-82421000D02*
X173080000Y-82421000D01*
X171520000Y-82421000D02*
X171152000Y-82421000D01*
X173388000Y-82461000D02*
X173080000Y-82461000D01*
X171520000Y-82461000D02*
X171212000Y-82461000D01*
X173323000Y-82501000D02*
X171277000Y-82501000D01*
X173252000Y-82541000D02*
X171348000Y-82541000D01*
X173174000Y-82581000D02*
X171426000Y-82581000D01*
X173086000Y-82621000D02*
X171514000Y-82621000D01*
X172986000Y-82661000D02*
X171614000Y-82661000D01*
X172867000Y-82701000D02*
X171733000Y-82701000D01*
X172715000Y-82741000D02*
X171885000Y-82741000D01*
X172465000Y-82781000D02*
X172135000Y-82781000D01*
X172300000Y-78000000D02*
X172300000Y-78900000D01*
X172750000Y-78450000D02*
X171850000Y-78450000D01*
D15*
X182714888Y-97975096D02*
G75*
G03X182730000Y-101000000I-2484888J-1524904D01*
G01*
X182730000Y-98000000D02*
X182730000Y-101000000D01*
X182747936Y-99500000D02*
G75*
G03X182747936Y-99500000I-2517936J0D01*
G01*
X178650000Y-71960000D02*
X127850000Y-71960000D01*
X130390000Y-77040000D02*
X178650000Y-77040000D01*
X178650000Y-71960000D02*
X178650000Y-77040000D01*
X127850000Y-71960000D02*
X127850000Y-74500000D01*
X127570000Y-75770000D02*
X127570000Y-77320000D01*
X127850000Y-74500000D02*
X130390000Y-74500000D01*
X130390000Y-74500000D02*
X130390000Y-77040000D01*
X127570000Y-77320000D02*
X129120000Y-77320000D01*
D16*
X181930000Y-91460000D02*
X176730000Y-91460000D01*
X176730000Y-91460000D02*
X176730000Y-94240000D01*
X176730000Y-94240000D02*
X181930000Y-94240000D01*
X181930000Y-94240000D02*
X181930000Y-91460000D01*
X183200000Y-91460000D02*
X184590000Y-91460000D01*
X184590000Y-91460000D02*
X184590000Y-92850000D01*
X179470000Y-81940000D02*
X184670000Y-81940000D01*
X184670000Y-81940000D02*
X184670000Y-79160000D01*
X184670000Y-79160000D02*
X179470000Y-79160000D01*
X179470000Y-79160000D02*
X179470000Y-81940000D01*
X178200000Y-81940000D02*
X176810000Y-81940000D01*
X176810000Y-81940000D02*
X176810000Y-80550000D01*
X179470000Y-87940000D02*
X184670000Y-87940000D01*
X184670000Y-87940000D02*
X184670000Y-85160000D01*
X184670000Y-85160000D02*
X179470000Y-85160000D01*
X179470000Y-85160000D02*
X179470000Y-87940000D01*
X178200000Y-87940000D02*
X176810000Y-87940000D01*
X176810000Y-87940000D02*
X176810000Y-86550000D01*
X129390000Y-103830000D02*
X129390000Y-80850000D01*
X129390000Y-80850000D02*
X126610000Y-80850000D01*
X126610000Y-80850000D02*
X126610000Y-103830000D01*
X126610000Y-103830000D02*
X129390000Y-103830000D01*
X129390000Y-105100000D02*
X129390000Y-106490000D01*
X129390000Y-106490000D02*
X128000000Y-106490000D01*
D15*
X152650000Y-109500000D02*
X152650000Y-125500000D01*
X128950000Y-109500000D02*
X152650000Y-109500000D01*
X128950000Y-125500000D02*
X128950000Y-109500000D01*
X152650000Y-125500000D02*
X128950000Y-125500000D01*
D16*
X166890000Y-111980000D02*
X166890000Y-109320000D01*
X166890000Y-109320000D02*
X164110000Y-109320000D01*
X164110000Y-109320000D02*
X164110000Y-111980000D01*
X164110000Y-111980000D02*
X166890000Y-111980000D01*
X166890000Y-113250000D02*
X166890000Y-114640000D01*
X166890000Y-114640000D02*
X165500000Y-114640000D01*
X147360000Y-89590000D02*
X147360000Y-93510000D01*
X144640000Y-89590000D02*
X144640000Y-93510000D01*
X147360000Y-89590000D02*
X146750000Y-89590000D01*
X145250000Y-89590000D02*
X144640000Y-89590000D01*
X147360000Y-93510000D02*
X146750000Y-93510000D01*
X145250000Y-93510000D02*
X144640000Y-93510000D01*
X160960000Y-89590000D02*
X160960000Y-93510000D01*
X158240000Y-89590000D02*
X158240000Y-93510000D01*
X160960000Y-89590000D02*
X160350000Y-89590000D01*
X158850000Y-89590000D02*
X158240000Y-89590000D01*
X160960000Y-93510000D02*
X160350000Y-93510000D01*
X158850000Y-93510000D02*
X158240000Y-93510000D01*
D15*
X125585715Y-111133333D02*
X125966667Y-111133333D01*
X125509524Y-111361905D02*
X125776191Y-110561905D01*
X126042858Y-111361905D01*
X126309524Y-111361905D02*
X126309524Y-110561905D01*
X126766667Y-111361905D01*
X126766667Y-110561905D01*
X127033333Y-110561905D02*
X127490476Y-110561905D01*
X127261905Y-111361905D02*
X127261905Y-110561905D01*
X141083334Y-89452381D02*
X140750000Y-88976190D01*
X140511905Y-89452381D02*
X140511905Y-88452381D01*
X140892858Y-88452381D01*
X140988096Y-88500000D01*
X141035715Y-88547619D01*
X141083334Y-88642857D01*
X141083334Y-88785714D01*
X141035715Y-88880952D01*
X140988096Y-88928571D01*
X140892858Y-88976190D01*
X140511905Y-88976190D01*
X141416667Y-88452381D02*
X142083334Y-88452381D01*
X141654762Y-89452381D01*
X141661905Y-83652381D02*
X141661905Y-84109524D01*
X141661905Y-83880953D02*
X140861905Y-83880953D01*
X140976190Y-83957143D01*
X141052381Y-84033334D01*
X141090476Y-84109524D01*
X140861905Y-83157143D02*
X140861905Y-83080952D01*
X140900000Y-83004762D01*
X140938095Y-82966667D01*
X141014286Y-82928571D01*
X141166667Y-82890476D01*
X141357143Y-82890476D01*
X141509524Y-82928571D01*
X141585714Y-82966667D01*
X141623810Y-83004762D01*
X141661905Y-83080952D01*
X141661905Y-83157143D01*
X141623810Y-83233333D01*
X141585714Y-83271429D01*
X141509524Y-83309524D01*
X141357143Y-83347619D01*
X141166667Y-83347619D01*
X141014286Y-83309524D01*
X140938095Y-83271429D01*
X140900000Y-83233333D01*
X140861905Y-83157143D01*
X141661905Y-82547619D02*
X140861905Y-82547619D01*
X141661905Y-82090476D02*
X141204762Y-82433333D01*
X140861905Y-82090476D02*
X141319048Y-82547619D01*
X164333334Y-92857143D02*
X164285715Y-92904762D01*
X164142858Y-92952381D01*
X164047620Y-92952381D01*
X163904762Y-92904762D01*
X163809524Y-92809524D01*
X163761905Y-92714286D01*
X163714286Y-92523810D01*
X163714286Y-92380952D01*
X163761905Y-92190476D01*
X163809524Y-92095238D01*
X163904762Y-92000000D01*
X164047620Y-91952381D01*
X164142858Y-91952381D01*
X164285715Y-92000000D01*
X164333334Y-92047619D01*
X165238096Y-91952381D02*
X164761905Y-91952381D01*
X164714286Y-92428571D01*
X164761905Y-92380952D01*
X164857143Y-92333333D01*
X165095239Y-92333333D01*
X165190477Y-92380952D01*
X165238096Y-92428571D01*
X165285715Y-92523810D01*
X165285715Y-92761905D01*
X165238096Y-92857143D01*
X165190477Y-92904762D01*
X165095239Y-92952381D01*
X164857143Y-92952381D01*
X164761905Y-92904762D01*
X164714286Y-92857143D01*
X163261905Y-91361905D02*
X162804762Y-91361905D01*
X163033333Y-91361905D02*
X163033333Y-90561905D01*
X162957143Y-90676190D01*
X162880952Y-90752381D01*
X162804762Y-90790476D01*
X163757143Y-90561905D02*
X163833334Y-90561905D01*
X163909524Y-90600000D01*
X163947619Y-90638095D01*
X163985715Y-90714286D01*
X164023810Y-90866667D01*
X164023810Y-91057143D01*
X163985715Y-91209524D01*
X163947619Y-91285714D01*
X163909524Y-91323810D01*
X163833334Y-91361905D01*
X163757143Y-91361905D01*
X163680953Y-91323810D01*
X163642857Y-91285714D01*
X163604762Y-91209524D01*
X163566667Y-91057143D01*
X163566667Y-90866667D01*
X163604762Y-90714286D01*
X163642857Y-90638095D01*
X163680953Y-90600000D01*
X163757143Y-90561905D01*
X164519048Y-90561905D02*
X164595239Y-90561905D01*
X164671429Y-90600000D01*
X164709524Y-90638095D01*
X164747620Y-90714286D01*
X164785715Y-90866667D01*
X164785715Y-91057143D01*
X164747620Y-91209524D01*
X164709524Y-91285714D01*
X164671429Y-91323810D01*
X164595239Y-91361905D01*
X164519048Y-91361905D01*
X164442858Y-91323810D01*
X164404762Y-91285714D01*
X164366667Y-91209524D01*
X164328572Y-91057143D01*
X164328572Y-90866667D01*
X164366667Y-90714286D01*
X164404762Y-90638095D01*
X164442858Y-90600000D01*
X164519048Y-90561905D01*
X165128572Y-90828571D02*
X165128572Y-91361905D01*
X165128572Y-90904762D02*
X165166667Y-90866667D01*
X165242858Y-90828571D01*
X165357144Y-90828571D01*
X165433334Y-90866667D01*
X165471429Y-90942857D01*
X165471429Y-91361905D01*
X166119049Y-90942857D02*
X165852382Y-90942857D01*
X165852382Y-91361905D02*
X165852382Y-90561905D01*
X166233335Y-90561905D01*
X155607143Y-111666666D02*
X155654762Y-111714285D01*
X155702381Y-111857142D01*
X155702381Y-111952380D01*
X155654762Y-112095238D01*
X155559524Y-112190476D01*
X155464286Y-112238095D01*
X155273810Y-112285714D01*
X155130952Y-112285714D01*
X154940476Y-112238095D01*
X154845238Y-112190476D01*
X154750000Y-112095238D01*
X154702381Y-111952380D01*
X154702381Y-111857142D01*
X154750000Y-111714285D01*
X154797619Y-111666666D01*
X154702381Y-110809523D02*
X154702381Y-111000000D01*
X154750000Y-111095238D01*
X154797619Y-111142857D01*
X154940476Y-111238095D01*
X155130952Y-111285714D01*
X155511905Y-111285714D01*
X155607143Y-111238095D01*
X155654762Y-111190476D01*
X155702381Y-111095238D01*
X155702381Y-110904761D01*
X155654762Y-110809523D01*
X155607143Y-110761904D01*
X155511905Y-110714285D01*
X155273810Y-110714285D01*
X155178571Y-110761904D01*
X155130952Y-110809523D01*
X155083333Y-110904761D01*
X155083333Y-111095238D01*
X155130952Y-111190476D01*
X155178571Y-111238095D01*
X155273810Y-111285714D01*
X158261905Y-110961905D02*
X157804762Y-110961905D01*
X158033333Y-110961905D02*
X158033333Y-110161905D01*
X157957143Y-110276190D01*
X157880952Y-110352381D01*
X157804762Y-110390476D01*
X158757143Y-110161905D02*
X158833334Y-110161905D01*
X158909524Y-110200000D01*
X158947619Y-110238095D01*
X158985715Y-110314286D01*
X159023810Y-110466667D01*
X159023810Y-110657143D01*
X158985715Y-110809524D01*
X158947619Y-110885714D01*
X158909524Y-110923810D01*
X158833334Y-110961905D01*
X158757143Y-110961905D01*
X158680953Y-110923810D01*
X158642857Y-110885714D01*
X158604762Y-110809524D01*
X158566667Y-110657143D01*
X158566667Y-110466667D01*
X158604762Y-110314286D01*
X158642857Y-110238095D01*
X158680953Y-110200000D01*
X158757143Y-110161905D01*
X159519048Y-110161905D02*
X159595239Y-110161905D01*
X159671429Y-110200000D01*
X159709524Y-110238095D01*
X159747620Y-110314286D01*
X159785715Y-110466667D01*
X159785715Y-110657143D01*
X159747620Y-110809524D01*
X159709524Y-110885714D01*
X159671429Y-110923810D01*
X159595239Y-110961905D01*
X159519048Y-110961905D01*
X159442858Y-110923810D01*
X159404762Y-110885714D01*
X159366667Y-110809524D01*
X159328572Y-110657143D01*
X159328572Y-110466667D01*
X159366667Y-110314286D01*
X159404762Y-110238095D01*
X159442858Y-110200000D01*
X159519048Y-110161905D01*
X160128572Y-110428571D02*
X160128572Y-110961905D01*
X160128572Y-110504762D02*
X160166667Y-110466667D01*
X160242858Y-110428571D01*
X160357144Y-110428571D01*
X160433334Y-110466667D01*
X160471429Y-110542857D01*
X160471429Y-110961905D01*
X161119049Y-110542857D02*
X160852382Y-110542857D01*
X160852382Y-110961905D02*
X160852382Y-110161905D01*
X161233335Y-110161905D01*
X162083334Y-123857143D02*
X162035715Y-123904762D01*
X161892858Y-123952381D01*
X161797620Y-123952381D01*
X161654762Y-123904762D01*
X161559524Y-123809524D01*
X161511905Y-123714286D01*
X161464286Y-123523810D01*
X161464286Y-123380952D01*
X161511905Y-123190476D01*
X161559524Y-123095238D01*
X161654762Y-123000000D01*
X161797620Y-122952381D01*
X161892858Y-122952381D01*
X162035715Y-123000000D01*
X162083334Y-123047619D01*
X162559524Y-123952381D02*
X162750000Y-123952381D01*
X162845239Y-123904762D01*
X162892858Y-123857143D01*
X162988096Y-123714286D01*
X163035715Y-123523810D01*
X163035715Y-123142857D01*
X162988096Y-123047619D01*
X162940477Y-123000000D01*
X162845239Y-122952381D01*
X162654762Y-122952381D01*
X162559524Y-123000000D01*
X162511905Y-123047619D01*
X162464286Y-123142857D01*
X162464286Y-123380952D01*
X162511905Y-123476190D01*
X162559524Y-123523810D01*
X162654762Y-123571429D01*
X162845239Y-123571429D01*
X162940477Y-123523810D01*
X162988096Y-123476190D01*
X163035715Y-123380952D01*
X162561905Y-119776190D02*
X162561905Y-120233333D01*
X162561905Y-120004762D02*
X161761905Y-120004762D01*
X161876190Y-120080952D01*
X161952381Y-120157143D01*
X161990476Y-120233333D01*
X162028571Y-119090476D02*
X162561905Y-119090476D01*
X162028571Y-119433333D02*
X162447619Y-119433333D01*
X162523810Y-119395238D01*
X162561905Y-119319047D01*
X162561905Y-119204761D01*
X162523810Y-119128571D01*
X162485714Y-119090476D01*
X162142857Y-118442856D02*
X162142857Y-118709523D01*
X162561905Y-118709523D02*
X161761905Y-118709523D01*
X161761905Y-118328570D01*
X156257143Y-123907143D02*
X156209524Y-123954762D01*
X156066667Y-124002381D01*
X155971429Y-124002381D01*
X155828571Y-123954762D01*
X155733333Y-123859524D01*
X155685714Y-123764286D01*
X155638095Y-123573810D01*
X155638095Y-123430952D01*
X155685714Y-123240476D01*
X155733333Y-123145238D01*
X155828571Y-123050000D01*
X155971429Y-123002381D01*
X156066667Y-123002381D01*
X156209524Y-123050000D01*
X156257143Y-123097619D01*
X157209524Y-124002381D02*
X156638095Y-124002381D01*
X156923809Y-124002381D02*
X156923809Y-123002381D01*
X156828571Y-123145238D01*
X156733333Y-123240476D01*
X156638095Y-123288095D01*
X157828571Y-123002381D02*
X157923810Y-123002381D01*
X158019048Y-123050000D01*
X158066667Y-123097619D01*
X158114286Y-123192857D01*
X158161905Y-123383333D01*
X158161905Y-123621429D01*
X158114286Y-123811905D01*
X158066667Y-123907143D01*
X158019048Y-123954762D01*
X157923810Y-124002381D01*
X157828571Y-124002381D01*
X157733333Y-123954762D01*
X157685714Y-123907143D01*
X157638095Y-123811905D01*
X157590476Y-123621429D01*
X157590476Y-123383333D01*
X157638095Y-123192857D01*
X157685714Y-123097619D01*
X157733333Y-123050000D01*
X157828571Y-123002381D01*
X158361905Y-120588095D02*
X158361905Y-121045238D01*
X158361905Y-120816667D02*
X157561905Y-120816667D01*
X157676190Y-120892857D01*
X157752381Y-120969048D01*
X157790476Y-121045238D01*
X157561905Y-120092857D02*
X157561905Y-120016666D01*
X157600000Y-119940476D01*
X157638095Y-119902381D01*
X157714286Y-119864285D01*
X157866667Y-119826190D01*
X158057143Y-119826190D01*
X158209524Y-119864285D01*
X158285714Y-119902381D01*
X158323810Y-119940476D01*
X158361905Y-120016666D01*
X158361905Y-120092857D01*
X158323810Y-120169047D01*
X158285714Y-120207143D01*
X158209524Y-120245238D01*
X158057143Y-120283333D01*
X157866667Y-120283333D01*
X157714286Y-120245238D01*
X157638095Y-120207143D01*
X157600000Y-120169047D01*
X157561905Y-120092857D01*
X157561905Y-119330952D02*
X157561905Y-119254761D01*
X157600000Y-119178571D01*
X157638095Y-119140476D01*
X157714286Y-119102380D01*
X157866667Y-119064285D01*
X158057143Y-119064285D01*
X158209524Y-119102380D01*
X158285714Y-119140476D01*
X158323810Y-119178571D01*
X158361905Y-119254761D01*
X158361905Y-119330952D01*
X158323810Y-119407142D01*
X158285714Y-119445238D01*
X158209524Y-119483333D01*
X158057143Y-119521428D01*
X157866667Y-119521428D01*
X157714286Y-119483333D01*
X157638095Y-119445238D01*
X157600000Y-119407142D01*
X157561905Y-119330952D01*
X157828571Y-118721428D02*
X158361905Y-118721428D01*
X157904762Y-118721428D02*
X157866667Y-118683333D01*
X157828571Y-118607142D01*
X157828571Y-118492856D01*
X157866667Y-118416666D01*
X157942857Y-118378571D01*
X158361905Y-118378571D01*
X157942857Y-117730951D02*
X157942857Y-117997618D01*
X158361905Y-117997618D02*
X157561905Y-117997618D01*
X157561905Y-117616665D01*
X170761905Y-126702381D02*
X170761905Y-125702381D01*
X171000000Y-125702381D01*
X171142858Y-125750000D01*
X171238096Y-125845238D01*
X171285715Y-125940476D01*
X171333334Y-126130952D01*
X171333334Y-126273810D01*
X171285715Y-126464286D01*
X171238096Y-126559524D01*
X171142858Y-126654762D01*
X171000000Y-126702381D01*
X170761905Y-126702381D01*
X172285715Y-126702381D02*
X171714286Y-126702381D01*
X172000000Y-126702381D02*
X172000000Y-125702381D01*
X171904762Y-125845238D01*
X171809524Y-125940476D01*
X171714286Y-125988095D01*
X184333334Y-119561905D02*
X184333334Y-120133333D01*
X184295238Y-120247619D01*
X184219048Y-120323810D01*
X184104762Y-120361905D01*
X184028572Y-120361905D01*
X184676191Y-119638095D02*
X184714286Y-119600000D01*
X184790477Y-119561905D01*
X184980953Y-119561905D01*
X185057143Y-119600000D01*
X185095239Y-119638095D01*
X185133334Y-119714286D01*
X185133334Y-119790476D01*
X185095239Y-119904762D01*
X184638096Y-120361905D01*
X185133334Y-120361905D01*
X147833334Y-89452381D02*
X147500000Y-88976190D01*
X147261905Y-89452381D02*
X147261905Y-88452381D01*
X147642858Y-88452381D01*
X147738096Y-88500000D01*
X147785715Y-88547619D01*
X147833334Y-88642857D01*
X147833334Y-88785714D01*
X147785715Y-88880952D01*
X147738096Y-88928571D01*
X147642858Y-88976190D01*
X147261905Y-88976190D01*
X148785715Y-89452381D02*
X148214286Y-89452381D01*
X148500000Y-89452381D02*
X148500000Y-88452381D01*
X148404762Y-88595238D01*
X148309524Y-88690476D01*
X148214286Y-88738095D01*
X148261905Y-83952381D02*
X148261905Y-84409524D01*
X148261905Y-84180953D02*
X147461905Y-84180953D01*
X147576190Y-84257143D01*
X147652381Y-84333334D01*
X147690476Y-84409524D01*
X147461905Y-83457143D02*
X147461905Y-83380952D01*
X147500000Y-83304762D01*
X147538095Y-83266667D01*
X147614286Y-83228571D01*
X147766667Y-83190476D01*
X147957143Y-83190476D01*
X148109524Y-83228571D01*
X148185714Y-83266667D01*
X148223810Y-83304762D01*
X148261905Y-83380952D01*
X148261905Y-83457143D01*
X148223810Y-83533333D01*
X148185714Y-83571429D01*
X148109524Y-83609524D01*
X147957143Y-83647619D01*
X147766667Y-83647619D01*
X147614286Y-83609524D01*
X147538095Y-83571429D01*
X147500000Y-83533333D01*
X147461905Y-83457143D01*
X148261905Y-82847619D02*
X147461905Y-82847619D01*
X148261905Y-82390476D02*
X147804762Y-82733333D01*
X147461905Y-82390476D02*
X147919048Y-82847619D01*
X151333334Y-89452381D02*
X151000000Y-88976190D01*
X150761905Y-89452381D02*
X150761905Y-88452381D01*
X151142858Y-88452381D01*
X151238096Y-88500000D01*
X151285715Y-88547619D01*
X151333334Y-88642857D01*
X151333334Y-88785714D01*
X151285715Y-88880952D01*
X151238096Y-88928571D01*
X151142858Y-88976190D01*
X150761905Y-88976190D01*
X151714286Y-88547619D02*
X151761905Y-88500000D01*
X151857143Y-88452381D01*
X152095239Y-88452381D01*
X152190477Y-88500000D01*
X152238096Y-88547619D01*
X152285715Y-88642857D01*
X152285715Y-88738095D01*
X152238096Y-88880952D01*
X151666667Y-89452381D01*
X152285715Y-89452381D01*
X151761905Y-83952381D02*
X151761905Y-84409524D01*
X151761905Y-84180953D02*
X150961905Y-84180953D01*
X151076190Y-84257143D01*
X151152381Y-84333334D01*
X151190476Y-84409524D01*
X150961905Y-83457143D02*
X150961905Y-83380952D01*
X151000000Y-83304762D01*
X151038095Y-83266667D01*
X151114286Y-83228571D01*
X151266667Y-83190476D01*
X151457143Y-83190476D01*
X151609524Y-83228571D01*
X151685714Y-83266667D01*
X151723810Y-83304762D01*
X151761905Y-83380952D01*
X151761905Y-83457143D01*
X151723810Y-83533333D01*
X151685714Y-83571429D01*
X151609524Y-83609524D01*
X151457143Y-83647619D01*
X151266667Y-83647619D01*
X151114286Y-83609524D01*
X151038095Y-83571429D01*
X151000000Y-83533333D01*
X150961905Y-83457143D01*
X151761905Y-82847619D02*
X150961905Y-82847619D01*
X151761905Y-82390476D02*
X151304762Y-82733333D01*
X150961905Y-82390476D02*
X151419048Y-82847619D01*
X167083334Y-126702381D02*
X166750000Y-126226190D01*
X166511905Y-126702381D02*
X166511905Y-125702381D01*
X166892858Y-125702381D01*
X166988096Y-125750000D01*
X167035715Y-125797619D01*
X167083334Y-125892857D01*
X167083334Y-126035714D01*
X167035715Y-126130952D01*
X166988096Y-126178571D01*
X166892858Y-126226190D01*
X166511905Y-126226190D01*
X167416667Y-125702381D02*
X168035715Y-125702381D01*
X167702381Y-126083333D01*
X167845239Y-126083333D01*
X167940477Y-126130952D01*
X167988096Y-126178571D01*
X168035715Y-126273810D01*
X168035715Y-126511905D01*
X167988096Y-126607143D01*
X167940477Y-126654762D01*
X167845239Y-126702381D01*
X167559524Y-126702381D01*
X167464286Y-126654762D01*
X167416667Y-126607143D01*
X167611905Y-121102381D02*
X167611905Y-121559524D01*
X167611905Y-121330953D02*
X166811905Y-121330953D01*
X166926190Y-121407143D01*
X167002381Y-121483334D01*
X167040476Y-121559524D01*
X166811905Y-120607143D02*
X166811905Y-120530952D01*
X166850000Y-120454762D01*
X166888095Y-120416667D01*
X166964286Y-120378571D01*
X167116667Y-120340476D01*
X167307143Y-120340476D01*
X167459524Y-120378571D01*
X167535714Y-120416667D01*
X167573810Y-120454762D01*
X167611905Y-120530952D01*
X167611905Y-120607143D01*
X167573810Y-120683333D01*
X167535714Y-120721429D01*
X167459524Y-120759524D01*
X167307143Y-120797619D01*
X167116667Y-120797619D01*
X166964286Y-120759524D01*
X166888095Y-120721429D01*
X166850000Y-120683333D01*
X166811905Y-120607143D01*
X167611905Y-119997619D02*
X166811905Y-119997619D01*
X167611905Y-119540476D02*
X167154762Y-119883333D01*
X166811905Y-119540476D02*
X167269048Y-119997619D01*
X170083334Y-95202381D02*
X169750000Y-94726190D01*
X169511905Y-95202381D02*
X169511905Y-94202381D01*
X169892858Y-94202381D01*
X169988096Y-94250000D01*
X170035715Y-94297619D01*
X170083334Y-94392857D01*
X170083334Y-94535714D01*
X170035715Y-94630952D01*
X169988096Y-94678571D01*
X169892858Y-94726190D01*
X169511905Y-94726190D01*
X170940477Y-94535714D02*
X170940477Y-95202381D01*
X170702381Y-94154762D02*
X170464286Y-94869048D01*
X171083334Y-94869048D01*
X170561905Y-88971428D02*
X170561905Y-89428571D01*
X170561905Y-89200000D02*
X169761905Y-89200000D01*
X169876190Y-89276190D01*
X169952381Y-89352381D01*
X169990476Y-89428571D01*
X170561905Y-88628571D02*
X169761905Y-88628571D01*
X170561905Y-88171428D02*
X170104762Y-88514285D01*
X169761905Y-88171428D02*
X170219048Y-88628571D01*
X144333334Y-89452381D02*
X144000000Y-88976190D01*
X143761905Y-89452381D02*
X143761905Y-88452381D01*
X144142858Y-88452381D01*
X144238096Y-88500000D01*
X144285715Y-88547619D01*
X144333334Y-88642857D01*
X144333334Y-88785714D01*
X144285715Y-88880952D01*
X144238096Y-88928571D01*
X144142858Y-88976190D01*
X143761905Y-88976190D01*
X145238096Y-88452381D02*
X144761905Y-88452381D01*
X144714286Y-88928571D01*
X144761905Y-88880952D01*
X144857143Y-88833333D01*
X145095239Y-88833333D01*
X145190477Y-88880952D01*
X145238096Y-88928571D01*
X145285715Y-89023810D01*
X145285715Y-89261905D01*
X145238096Y-89357143D01*
X145190477Y-89404762D01*
X145095239Y-89452381D01*
X144857143Y-89452381D01*
X144761905Y-89404762D01*
X144714286Y-89357143D01*
X145061905Y-83652381D02*
X145061905Y-84109524D01*
X145061905Y-83880953D02*
X144261905Y-83880953D01*
X144376190Y-83957143D01*
X144452381Y-84033334D01*
X144490476Y-84109524D01*
X144261905Y-83157143D02*
X144261905Y-83080952D01*
X144300000Y-83004762D01*
X144338095Y-82966667D01*
X144414286Y-82928571D01*
X144566667Y-82890476D01*
X144757143Y-82890476D01*
X144909524Y-82928571D01*
X144985714Y-82966667D01*
X145023810Y-83004762D01*
X145061905Y-83080952D01*
X145061905Y-83157143D01*
X145023810Y-83233333D01*
X144985714Y-83271429D01*
X144909524Y-83309524D01*
X144757143Y-83347619D01*
X144566667Y-83347619D01*
X144414286Y-83309524D01*
X144338095Y-83271429D01*
X144300000Y-83233333D01*
X144261905Y-83157143D01*
X145061905Y-82547619D02*
X144261905Y-82547619D01*
X145061905Y-82090476D02*
X144604762Y-82433333D01*
X144261905Y-82090476D02*
X144719048Y-82547619D01*
X173333334Y-95202381D02*
X173000000Y-94726190D01*
X172761905Y-95202381D02*
X172761905Y-94202381D01*
X173142858Y-94202381D01*
X173238096Y-94250000D01*
X173285715Y-94297619D01*
X173333334Y-94392857D01*
X173333334Y-94535714D01*
X173285715Y-94630952D01*
X173238096Y-94678571D01*
X173142858Y-94726190D01*
X172761905Y-94726190D01*
X174190477Y-94202381D02*
X174000000Y-94202381D01*
X173904762Y-94250000D01*
X173857143Y-94297619D01*
X173761905Y-94440476D01*
X173714286Y-94630952D01*
X173714286Y-95011905D01*
X173761905Y-95107143D01*
X173809524Y-95154762D01*
X173904762Y-95202381D01*
X174095239Y-95202381D01*
X174190477Y-95154762D01*
X174238096Y-95107143D01*
X174285715Y-95011905D01*
X174285715Y-94773810D01*
X174238096Y-94678571D01*
X174190477Y-94630952D01*
X174095239Y-94583333D01*
X173904762Y-94583333D01*
X173809524Y-94630952D01*
X173761905Y-94678571D01*
X173714286Y-94773810D01*
X174011905Y-89502381D02*
X174011905Y-89959524D01*
X174011905Y-89730953D02*
X173211905Y-89730953D01*
X173326190Y-89807143D01*
X173402381Y-89883334D01*
X173440476Y-89959524D01*
X173211905Y-89007143D02*
X173211905Y-88930952D01*
X173250000Y-88854762D01*
X173288095Y-88816667D01*
X173364286Y-88778571D01*
X173516667Y-88740476D01*
X173707143Y-88740476D01*
X173859524Y-88778571D01*
X173935714Y-88816667D01*
X173973810Y-88854762D01*
X174011905Y-88930952D01*
X174011905Y-89007143D01*
X173973810Y-89083333D01*
X173935714Y-89121429D01*
X173859524Y-89159524D01*
X173707143Y-89197619D01*
X173516667Y-89197619D01*
X173364286Y-89159524D01*
X173288095Y-89121429D01*
X173250000Y-89083333D01*
X173211905Y-89007143D01*
X174011905Y-88397619D02*
X173211905Y-88397619D01*
X174011905Y-87940476D02*
X173554762Y-88283333D01*
X173211905Y-87940476D02*
X173669048Y-88397619D01*
X160352381Y-81261905D02*
X161161905Y-81261905D01*
X161257143Y-81214286D01*
X161304762Y-81166667D01*
X161352381Y-81071429D01*
X161352381Y-80880952D01*
X161304762Y-80785714D01*
X161257143Y-80738095D01*
X161161905Y-80690476D01*
X160352381Y-80690476D01*
X161352381Y-79690476D02*
X161352381Y-80261905D01*
X161352381Y-79976191D02*
X160352381Y-79976191D01*
X160495238Y-80071429D01*
X160590476Y-80166667D01*
X160638095Y-80261905D01*
X176202381Y-103261905D02*
X177011905Y-103261905D01*
X177107143Y-103214286D01*
X177154762Y-103166667D01*
X177202381Y-103071429D01*
X177202381Y-102880952D01*
X177154762Y-102785714D01*
X177107143Y-102738095D01*
X177011905Y-102690476D01*
X176202381Y-102690476D01*
X176297619Y-102261905D02*
X176250000Y-102214286D01*
X176202381Y-102119048D01*
X176202381Y-101880952D01*
X176250000Y-101785714D01*
X176297619Y-101738095D01*
X176392857Y-101690476D01*
X176488095Y-101690476D01*
X176630952Y-101738095D01*
X177202381Y-102309524D01*
X177202381Y-101690476D01*
X150957143Y-102666667D02*
X151433334Y-102666667D01*
X150861905Y-102952381D02*
X151195238Y-101952381D01*
X151528572Y-102952381D01*
X151719048Y-101952381D02*
X152290477Y-101952381D01*
X152004762Y-102952381D02*
X152004762Y-101952381D01*
X152623810Y-102952381D02*
X152623810Y-101952381D01*
X152957144Y-102666667D01*
X153290477Y-101952381D01*
X153290477Y-102952381D01*
X153766667Y-102428571D02*
X154100001Y-102428571D01*
X154242858Y-102952381D02*
X153766667Y-102952381D01*
X153766667Y-101952381D01*
X154242858Y-101952381D01*
X155195239Y-102000000D02*
X155100001Y-101952381D01*
X154957144Y-101952381D01*
X154814286Y-102000000D01*
X154719048Y-102095238D01*
X154671429Y-102190476D01*
X154623810Y-102380952D01*
X154623810Y-102523810D01*
X154671429Y-102714286D01*
X154719048Y-102809524D01*
X154814286Y-102904762D01*
X154957144Y-102952381D01*
X155052382Y-102952381D01*
X155195239Y-102904762D01*
X155242858Y-102857143D01*
X155242858Y-102523810D01*
X155052382Y-102523810D01*
X155623810Y-102666667D02*
X156100001Y-102666667D01*
X155528572Y-102952381D02*
X155861905Y-101952381D01*
X156195239Y-102952381D01*
X156433334Y-101952381D02*
X157052382Y-101952381D01*
X156719048Y-102333333D01*
X156861906Y-102333333D01*
X156957144Y-102380952D01*
X157004763Y-102428571D01*
X157052382Y-102523810D01*
X157052382Y-102761905D01*
X157004763Y-102857143D01*
X156957144Y-102904762D01*
X156861906Y-102952381D01*
X156576191Y-102952381D01*
X156480953Y-102904762D01*
X156433334Y-102857143D01*
X157433334Y-102047619D02*
X157480953Y-102000000D01*
X157576191Y-101952381D01*
X157814287Y-101952381D01*
X157909525Y-102000000D01*
X157957144Y-102047619D01*
X158004763Y-102142857D01*
X158004763Y-102238095D01*
X157957144Y-102380952D01*
X157385715Y-102952381D01*
X158004763Y-102952381D01*
X158576191Y-102380952D02*
X158480953Y-102333333D01*
X158433334Y-102285714D01*
X158385715Y-102190476D01*
X158385715Y-102142857D01*
X158433334Y-102047619D01*
X158480953Y-102000000D01*
X158576191Y-101952381D01*
X158766668Y-101952381D01*
X158861906Y-102000000D01*
X158909525Y-102047619D01*
X158957144Y-102142857D01*
X158957144Y-102190476D01*
X158909525Y-102285714D01*
X158861906Y-102333333D01*
X158766668Y-102380952D01*
X158576191Y-102380952D01*
X158480953Y-102428571D01*
X158433334Y-102476190D01*
X158385715Y-102571429D01*
X158385715Y-102761905D01*
X158433334Y-102857143D01*
X158480953Y-102904762D01*
X158576191Y-102952381D01*
X158766668Y-102952381D01*
X158861906Y-102904762D01*
X158909525Y-102857143D01*
X158957144Y-102761905D01*
X158957144Y-102571429D01*
X158909525Y-102476190D01*
X158861906Y-102428571D01*
X158766668Y-102380952D01*
X159385715Y-102952381D02*
X159385715Y-101952381D01*
X159766668Y-101952381D01*
X159861906Y-102000000D01*
X159909525Y-102047619D01*
X159957144Y-102142857D01*
X159957144Y-102285714D01*
X159909525Y-102380952D01*
X159861906Y-102428571D01*
X159766668Y-102476190D01*
X159385715Y-102476190D01*
X160385715Y-102571429D02*
X161147620Y-102571429D01*
X161623810Y-102952381D02*
X161623810Y-101952381D01*
X162004763Y-101952381D01*
X162100001Y-102000000D01*
X162147620Y-102047619D01*
X162195239Y-102142857D01*
X162195239Y-102285714D01*
X162147620Y-102380952D01*
X162100001Y-102428571D01*
X162004763Y-102476190D01*
X161623810Y-102476190D01*
X162623810Y-101952381D02*
X162623810Y-102761905D01*
X162671429Y-102857143D01*
X162719048Y-102904762D01*
X162814286Y-102952381D01*
X163004763Y-102952381D01*
X163100001Y-102904762D01*
X163147620Y-102857143D01*
X163195239Y-102761905D01*
X163195239Y-101952381D01*
X153290476Y-89652381D02*
X153957143Y-90652381D01*
X153957143Y-89652381D02*
X153290476Y-90652381D01*
X154861905Y-90652381D02*
X154290476Y-90652381D01*
X154576190Y-90652381D02*
X154576190Y-89652381D01*
X154480952Y-89795238D01*
X154385714Y-89890476D01*
X154290476Y-89938095D01*
X151447619Y-92261905D02*
X150990476Y-92261905D01*
X151219047Y-92261905D02*
X151219047Y-91461905D01*
X151142857Y-91576190D01*
X151066666Y-91652381D01*
X150990476Y-91690476D01*
X152133333Y-91461905D02*
X151980952Y-91461905D01*
X151904762Y-91500000D01*
X151866667Y-91538095D01*
X151790476Y-91652381D01*
X151752381Y-91804762D01*
X151752381Y-92109524D01*
X151790476Y-92185714D01*
X151828571Y-92223810D01*
X151904762Y-92261905D01*
X152057143Y-92261905D01*
X152133333Y-92223810D01*
X152171429Y-92185714D01*
X152209524Y-92109524D01*
X152209524Y-91919048D01*
X152171429Y-91842857D01*
X152133333Y-91804762D01*
X152057143Y-91766667D01*
X151904762Y-91766667D01*
X151828571Y-91804762D01*
X151790476Y-91842857D01*
X151752381Y-91919048D01*
X152552381Y-92261905D02*
X152552381Y-91461905D01*
X152819048Y-92033333D01*
X153085715Y-91461905D01*
X153085715Y-92261905D01*
X153466667Y-92261905D02*
X153466667Y-91461905D01*
X153466667Y-91842857D02*
X153923810Y-91842857D01*
X153923810Y-92261905D02*
X153923810Y-91461905D01*
X154228572Y-91728571D02*
X154647619Y-91728571D01*
X154228572Y-92261905D01*
X154647619Y-92261905D01*
X160607143Y-85666666D02*
X160654762Y-85714285D01*
X160702381Y-85857142D01*
X160702381Y-85952380D01*
X160654762Y-86095238D01*
X160559524Y-86190476D01*
X160464286Y-86238095D01*
X160273810Y-86285714D01*
X160130952Y-86285714D01*
X159940476Y-86238095D01*
X159845238Y-86190476D01*
X159750000Y-86095238D01*
X159702381Y-85952380D01*
X159702381Y-85857142D01*
X159750000Y-85714285D01*
X159797619Y-85666666D01*
X160035714Y-84809523D02*
X160702381Y-84809523D01*
X159654762Y-85047619D02*
X160369048Y-85285714D01*
X160369048Y-84666666D01*
X164023810Y-85861905D02*
X163566667Y-85861905D01*
X163795238Y-85861905D02*
X163795238Y-85061905D01*
X163719048Y-85176190D01*
X163642857Y-85252381D01*
X163566667Y-85290476D01*
X164709524Y-85328571D02*
X164709524Y-85861905D01*
X164366667Y-85328571D02*
X164366667Y-85747619D01*
X164404762Y-85823810D01*
X164480953Y-85861905D01*
X164595239Y-85861905D01*
X164671429Y-85823810D01*
X164709524Y-85785714D01*
X165357144Y-85442857D02*
X165090477Y-85442857D01*
X165090477Y-85861905D02*
X165090477Y-85061905D01*
X165471430Y-85061905D01*
X175833334Y-126607143D02*
X175785715Y-126654762D01*
X175642858Y-126702381D01*
X175547620Y-126702381D01*
X175404762Y-126654762D01*
X175309524Y-126559524D01*
X175261905Y-126464286D01*
X175214286Y-126273810D01*
X175214286Y-126130952D01*
X175261905Y-125940476D01*
X175309524Y-125845238D01*
X175404762Y-125750000D01*
X175547620Y-125702381D01*
X175642858Y-125702381D01*
X175785715Y-125750000D01*
X175833334Y-125797619D01*
X176785715Y-126702381D02*
X176214286Y-126702381D01*
X176500000Y-126702381D02*
X176500000Y-125702381D01*
X176404762Y-125845238D01*
X176309524Y-125940476D01*
X176214286Y-125988095D01*
X177411905Y-122888095D02*
X177411905Y-123345238D01*
X177411905Y-123116667D02*
X176611905Y-123116667D01*
X176726190Y-123192857D01*
X176802381Y-123269048D01*
X176840476Y-123345238D01*
X176611905Y-122392857D02*
X176611905Y-122316666D01*
X176650000Y-122240476D01*
X176688095Y-122202381D01*
X176764286Y-122164285D01*
X176916667Y-122126190D01*
X177107143Y-122126190D01*
X177259524Y-122164285D01*
X177335714Y-122202381D01*
X177373810Y-122240476D01*
X177411905Y-122316666D01*
X177411905Y-122392857D01*
X177373810Y-122469047D01*
X177335714Y-122507143D01*
X177259524Y-122545238D01*
X177107143Y-122583333D01*
X176916667Y-122583333D01*
X176764286Y-122545238D01*
X176688095Y-122507143D01*
X176650000Y-122469047D01*
X176611905Y-122392857D01*
X176611905Y-121630952D02*
X176611905Y-121554761D01*
X176650000Y-121478571D01*
X176688095Y-121440476D01*
X176764286Y-121402380D01*
X176916667Y-121364285D01*
X177107143Y-121364285D01*
X177259524Y-121402380D01*
X177335714Y-121440476D01*
X177373810Y-121478571D01*
X177411905Y-121554761D01*
X177411905Y-121630952D01*
X177373810Y-121707142D01*
X177335714Y-121745238D01*
X177259524Y-121783333D01*
X177107143Y-121821428D01*
X176916667Y-121821428D01*
X176764286Y-121783333D01*
X176688095Y-121745238D01*
X176650000Y-121707142D01*
X176611905Y-121630952D01*
X176878571Y-121021428D02*
X177411905Y-121021428D01*
X176954762Y-121021428D02*
X176916667Y-120983333D01*
X176878571Y-120907142D01*
X176878571Y-120792856D01*
X176916667Y-120716666D01*
X176992857Y-120678571D01*
X177411905Y-120678571D01*
X176992857Y-120030951D02*
X176992857Y-120297618D01*
X177411905Y-120297618D02*
X176611905Y-120297618D01*
X176611905Y-119916665D01*
X156233334Y-79857143D02*
X156185715Y-79904762D01*
X156042858Y-79952381D01*
X155947620Y-79952381D01*
X155804762Y-79904762D01*
X155709524Y-79809524D01*
X155661905Y-79714286D01*
X155614286Y-79523810D01*
X155614286Y-79380952D01*
X155661905Y-79190476D01*
X155709524Y-79095238D01*
X155804762Y-79000000D01*
X155947620Y-78952381D01*
X156042858Y-78952381D01*
X156185715Y-79000000D01*
X156233334Y-79047619D01*
X156614286Y-79047619D02*
X156661905Y-79000000D01*
X156757143Y-78952381D01*
X156995239Y-78952381D01*
X157090477Y-79000000D01*
X157138096Y-79047619D01*
X157185715Y-79142857D01*
X157185715Y-79238095D01*
X157138096Y-79380952D01*
X156566667Y-79952381D01*
X157185715Y-79952381D01*
X155923810Y-86761905D02*
X155466667Y-86761905D01*
X155695238Y-86761905D02*
X155695238Y-85961905D01*
X155619048Y-86076190D01*
X155542857Y-86152381D01*
X155466667Y-86190476D01*
X156609524Y-86228571D02*
X156609524Y-86761905D01*
X156266667Y-86228571D02*
X156266667Y-86647619D01*
X156304762Y-86723810D01*
X156380953Y-86761905D01*
X156495239Y-86761905D01*
X156571429Y-86723810D01*
X156609524Y-86685714D01*
X157257144Y-86342857D02*
X156990477Y-86342857D01*
X156990477Y-86761905D02*
X156990477Y-85961905D01*
X157371430Y-85961905D01*
X175507143Y-81116666D02*
X175554762Y-81164285D01*
X175602381Y-81307142D01*
X175602381Y-81402380D01*
X175554762Y-81545238D01*
X175459524Y-81640476D01*
X175364286Y-81688095D01*
X175173810Y-81735714D01*
X175030952Y-81735714D01*
X174840476Y-81688095D01*
X174745238Y-81640476D01*
X174650000Y-81545238D01*
X174602381Y-81402380D01*
X174602381Y-81307142D01*
X174650000Y-81164285D01*
X174697619Y-81116666D01*
X174602381Y-80783333D02*
X174602381Y-80164285D01*
X174983333Y-80497619D01*
X174983333Y-80354761D01*
X175030952Y-80259523D01*
X175078571Y-80211904D01*
X175173810Y-80164285D01*
X175411905Y-80164285D01*
X175507143Y-80211904D01*
X175554762Y-80259523D01*
X175602381Y-80354761D01*
X175602381Y-80640476D01*
X175554762Y-80735714D01*
X175507143Y-80783333D01*
X169761905Y-81557143D02*
X169761905Y-82014286D01*
X169761905Y-81785715D02*
X168961905Y-81785715D01*
X169076190Y-81861905D01*
X169152381Y-81938096D01*
X169190476Y-82014286D01*
X168961905Y-81061905D02*
X168961905Y-80985714D01*
X169000000Y-80909524D01*
X169038095Y-80871429D01*
X169114286Y-80833333D01*
X169266667Y-80795238D01*
X169457143Y-80795238D01*
X169609524Y-80833333D01*
X169685714Y-80871429D01*
X169723810Y-80909524D01*
X169761905Y-80985714D01*
X169761905Y-81061905D01*
X169723810Y-81138095D01*
X169685714Y-81176191D01*
X169609524Y-81214286D01*
X169457143Y-81252381D01*
X169266667Y-81252381D01*
X169114286Y-81214286D01*
X169038095Y-81176191D01*
X169000000Y-81138095D01*
X168961905Y-81061905D01*
X169228571Y-80109524D02*
X169761905Y-80109524D01*
X169228571Y-80452381D02*
X169647619Y-80452381D01*
X169723810Y-80414286D01*
X169761905Y-80338095D01*
X169761905Y-80223809D01*
X169723810Y-80147619D01*
X169685714Y-80109524D01*
X169342857Y-79461904D02*
X169342857Y-79728571D01*
X169761905Y-79728571D02*
X168961905Y-79728571D01*
X168961905Y-79347618D01*
X179361905Y-98202381D02*
X179361905Y-97202381D01*
X179600000Y-97202381D01*
X179742858Y-97250000D01*
X179838096Y-97345238D01*
X179885715Y-97440476D01*
X179933334Y-97630952D01*
X179933334Y-97773810D01*
X179885715Y-97964286D01*
X179838096Y-98059524D01*
X179742858Y-98154762D01*
X179600000Y-98202381D01*
X179361905Y-98202381D01*
X180314286Y-97297619D02*
X180361905Y-97250000D01*
X180457143Y-97202381D01*
X180695239Y-97202381D01*
X180790477Y-97250000D01*
X180838096Y-97297619D01*
X180885715Y-97392857D01*
X180885715Y-97488095D01*
X180838096Y-97630952D01*
X180266667Y-98202381D01*
X180885715Y-98202381D01*
X127966667Y-77652381D02*
X127966667Y-78366667D01*
X127919047Y-78509524D01*
X127823809Y-78604762D01*
X127680952Y-78652381D01*
X127585714Y-78652381D01*
X128966667Y-78652381D02*
X128395238Y-78652381D01*
X128680952Y-78652381D02*
X128680952Y-77652381D01*
X128585714Y-77795238D01*
X128490476Y-77890476D01*
X128395238Y-77938095D01*
X184811905Y-93266666D02*
X185383333Y-93266666D01*
X185497619Y-93304762D01*
X185573810Y-93380952D01*
X185611905Y-93495238D01*
X185611905Y-93571428D01*
X184811905Y-92961904D02*
X184811905Y-92466666D01*
X185116667Y-92733333D01*
X185116667Y-92619047D01*
X185154762Y-92542857D01*
X185192857Y-92504761D01*
X185269048Y-92466666D01*
X185459524Y-92466666D01*
X185535714Y-92504761D01*
X185573810Y-92542857D01*
X185611905Y-92619047D01*
X185611905Y-92847619D01*
X185573810Y-92923809D01*
X185535714Y-92961904D01*
X184811905Y-81016666D02*
X185383333Y-81016666D01*
X185497619Y-81054762D01*
X185573810Y-81130952D01*
X185611905Y-81245238D01*
X185611905Y-81321428D01*
X185078571Y-80292857D02*
X185611905Y-80292857D01*
X184773810Y-80483333D02*
X185345238Y-80673809D01*
X185345238Y-80178571D01*
X184811905Y-86766666D02*
X185383333Y-86766666D01*
X185497619Y-86804762D01*
X185573810Y-86880952D01*
X185611905Y-86995238D01*
X185611905Y-87071428D01*
X184811905Y-86004761D02*
X184811905Y-86385714D01*
X185192857Y-86423809D01*
X185154762Y-86385714D01*
X185116667Y-86309523D01*
X185116667Y-86119047D01*
X185154762Y-86042857D01*
X185192857Y-86004761D01*
X185269048Y-85966666D01*
X185459524Y-85966666D01*
X185535714Y-86004761D01*
X185573810Y-86042857D01*
X185611905Y-86119047D01*
X185611905Y-86309523D01*
X185573810Y-86385714D01*
X185535714Y-86423809D01*
X127666667Y-106952381D02*
X127666667Y-107666667D01*
X127619047Y-107809524D01*
X127523809Y-107904762D01*
X127380952Y-107952381D01*
X127285714Y-107952381D01*
X128571429Y-106952381D02*
X128380952Y-106952381D01*
X128285714Y-107000000D01*
X128238095Y-107047619D01*
X128142857Y-107190476D01*
X128095238Y-107380952D01*
X128095238Y-107761905D01*
X128142857Y-107857143D01*
X128190476Y-107904762D01*
X128285714Y-107952381D01*
X128476191Y-107952381D01*
X128571429Y-107904762D01*
X128619048Y-107857143D01*
X128666667Y-107761905D01*
X128666667Y-107523810D01*
X128619048Y-107428571D01*
X128571429Y-107380952D01*
X128476191Y-107333333D01*
X128285714Y-107333333D01*
X128190476Y-107380952D01*
X128142857Y-107428571D01*
X128095238Y-107523810D01*
D17*
X148386476Y-125839905D02*
X148386476Y-126487524D01*
X148424571Y-126563714D01*
X148462667Y-126601810D01*
X148538857Y-126639905D01*
X148691238Y-126639905D01*
X148767429Y-126601810D01*
X148805524Y-126563714D01*
X148843619Y-126487524D01*
X148843619Y-125839905D01*
X149148381Y-125839905D02*
X149643619Y-125839905D01*
X149376952Y-126144667D01*
X149491238Y-126144667D01*
X149567428Y-126182762D01*
X149605524Y-126220857D01*
X149643619Y-126297048D01*
X149643619Y-126487524D01*
X149605524Y-126563714D01*
X149567428Y-126601810D01*
X149491238Y-126639905D01*
X149262666Y-126639905D01*
X149186476Y-126601810D01*
X149148381Y-126563714D01*
D15*
X133250000Y-83357143D02*
X133464286Y-83428571D01*
X133821429Y-83428571D01*
X133964286Y-83357143D01*
X134035715Y-83285714D01*
X134107143Y-83142857D01*
X134107143Y-83000000D01*
X134035715Y-82857143D01*
X133964286Y-82785714D01*
X133821429Y-82714286D01*
X133535715Y-82642857D01*
X133392857Y-82571429D01*
X133321429Y-82500000D01*
X133250000Y-82357143D01*
X133250000Y-82214286D01*
X133321429Y-82071429D01*
X133392857Y-82000000D01*
X133535715Y-81928571D01*
X133892857Y-81928571D01*
X134107143Y-82000000D01*
X134607143Y-81928571D02*
X134964286Y-83428571D01*
X135250000Y-82357143D01*
X135535714Y-83428571D01*
X135892857Y-81928571D01*
X137250000Y-83428571D02*
X136392857Y-83428571D01*
X136821429Y-83428571D02*
X136821429Y-81928571D01*
X136678572Y-82142857D01*
X136535714Y-82285714D01*
X136392857Y-82357143D01*
X133500000Y-93357143D02*
X133714286Y-93428571D01*
X134071429Y-93428571D01*
X134214286Y-93357143D01*
X134285715Y-93285714D01*
X134357143Y-93142857D01*
X134357143Y-93000000D01*
X134285715Y-92857143D01*
X134214286Y-92785714D01*
X134071429Y-92714286D01*
X133785715Y-92642857D01*
X133642857Y-92571429D01*
X133571429Y-92500000D01*
X133500000Y-92357143D01*
X133500000Y-92214286D01*
X133571429Y-92071429D01*
X133642857Y-92000000D01*
X133785715Y-91928571D01*
X134142857Y-91928571D01*
X134357143Y-92000000D01*
X134857143Y-91928571D02*
X135214286Y-93428571D01*
X135500000Y-92357143D01*
X135785714Y-93428571D01*
X136142857Y-91928571D01*
X136642857Y-92071429D02*
X136714286Y-92000000D01*
X136857143Y-91928571D01*
X137214286Y-91928571D01*
X137357143Y-92000000D01*
X137428572Y-92071429D01*
X137500000Y-92214286D01*
X137500000Y-92357143D01*
X137428572Y-92571429D01*
X136571429Y-93428571D01*
X137500000Y-93428571D01*
X173000000Y-113857143D02*
X173214286Y-113928571D01*
X173571429Y-113928571D01*
X173714286Y-113857143D01*
X173785715Y-113785714D01*
X173857143Y-113642857D01*
X173857143Y-113500000D01*
X173785715Y-113357143D01*
X173714286Y-113285714D01*
X173571429Y-113214286D01*
X173285715Y-113142857D01*
X173142857Y-113071429D01*
X173071429Y-113000000D01*
X173000000Y-112857143D01*
X173000000Y-112714286D01*
X173071429Y-112571429D01*
X173142857Y-112500000D01*
X173285715Y-112428571D01*
X173642857Y-112428571D01*
X173857143Y-112500000D01*
X174357143Y-112428571D02*
X174714286Y-113928571D01*
X175000000Y-112857143D01*
X175285714Y-113928571D01*
X175642857Y-112428571D01*
X176071429Y-112428571D02*
X177000000Y-112428571D01*
X176500000Y-113000000D01*
X176714286Y-113000000D01*
X176857143Y-113071429D01*
X176928572Y-113142857D01*
X177000000Y-113285714D01*
X177000000Y-113642857D01*
X176928572Y-113785714D01*
X176857143Y-113857143D01*
X176714286Y-113928571D01*
X176285714Y-113928571D01*
X176142857Y-113857143D01*
X176071429Y-113785714D01*
X133500000Y-103357143D02*
X133714286Y-103428571D01*
X134071429Y-103428571D01*
X134214286Y-103357143D01*
X134285715Y-103285714D01*
X134357143Y-103142857D01*
X134357143Y-103000000D01*
X134285715Y-102857143D01*
X134214286Y-102785714D01*
X134071429Y-102714286D01*
X133785715Y-102642857D01*
X133642857Y-102571429D01*
X133571429Y-102500000D01*
X133500000Y-102357143D01*
X133500000Y-102214286D01*
X133571429Y-102071429D01*
X133642857Y-102000000D01*
X133785715Y-101928571D01*
X134142857Y-101928571D01*
X134357143Y-102000000D01*
X134857143Y-101928571D02*
X135214286Y-103428571D01*
X135500000Y-102357143D01*
X135785714Y-103428571D01*
X136142857Y-101928571D01*
X137357143Y-102428571D02*
X137357143Y-103428571D01*
X137000000Y-101857143D02*
X136642857Y-102928571D01*
X137571429Y-102928571D01*
X145833334Y-94857143D02*
X145785715Y-94904762D01*
X145642858Y-94952381D01*
X145547620Y-94952381D01*
X145404762Y-94904762D01*
X145309524Y-94809524D01*
X145261905Y-94714286D01*
X145214286Y-94523810D01*
X145214286Y-94380952D01*
X145261905Y-94190476D01*
X145309524Y-94095238D01*
X145404762Y-94000000D01*
X145547620Y-93952381D01*
X145642858Y-93952381D01*
X145785715Y-94000000D01*
X145833334Y-94047619D01*
X146166667Y-93952381D02*
X146833334Y-93952381D01*
X146404762Y-94952381D01*
X143638095Y-92714286D02*
X143600000Y-92676191D01*
X143561905Y-92600000D01*
X143561905Y-92409524D01*
X143600000Y-92333334D01*
X143638095Y-92295238D01*
X143714286Y-92257143D01*
X143790476Y-92257143D01*
X143904762Y-92295238D01*
X144361905Y-92752381D01*
X144361905Y-92257143D01*
X143638095Y-91952381D02*
X143600000Y-91914286D01*
X143561905Y-91838095D01*
X143561905Y-91647619D01*
X143600000Y-91571429D01*
X143638095Y-91533333D01*
X143714286Y-91495238D01*
X143790476Y-91495238D01*
X143904762Y-91533333D01*
X144361905Y-91990476D01*
X144361905Y-91495238D01*
X143828571Y-91152381D02*
X144628571Y-91152381D01*
X143866667Y-91152381D02*
X143828571Y-91076190D01*
X143828571Y-90923809D01*
X143866667Y-90847619D01*
X143904762Y-90809524D01*
X143980952Y-90771428D01*
X144209524Y-90771428D01*
X144285714Y-90809524D01*
X144323810Y-90847619D01*
X144361905Y-90923809D01*
X144361905Y-91076190D01*
X144323810Y-91152381D01*
X143942857Y-90161904D02*
X143942857Y-90428571D01*
X144361905Y-90428571D02*
X143561905Y-90428571D01*
X143561905Y-90047618D01*
X159333334Y-89157143D02*
X159285715Y-89204762D01*
X159142858Y-89252381D01*
X159047620Y-89252381D01*
X158904762Y-89204762D01*
X158809524Y-89109524D01*
X158761905Y-89014286D01*
X158714286Y-88823810D01*
X158714286Y-88680952D01*
X158761905Y-88490476D01*
X158809524Y-88395238D01*
X158904762Y-88300000D01*
X159047620Y-88252381D01*
X159142858Y-88252381D01*
X159285715Y-88300000D01*
X159333334Y-88347619D01*
X159904762Y-88680952D02*
X159809524Y-88633333D01*
X159761905Y-88585714D01*
X159714286Y-88490476D01*
X159714286Y-88442857D01*
X159761905Y-88347619D01*
X159809524Y-88300000D01*
X159904762Y-88252381D01*
X160095239Y-88252381D01*
X160190477Y-88300000D01*
X160238096Y-88347619D01*
X160285715Y-88442857D01*
X160285715Y-88490476D01*
X160238096Y-88585714D01*
X160190477Y-88633333D01*
X160095239Y-88680952D01*
X159904762Y-88680952D01*
X159809524Y-88728571D01*
X159761905Y-88776190D01*
X159714286Y-88871429D01*
X159714286Y-89061905D01*
X159761905Y-89157143D01*
X159809524Y-89204762D01*
X159904762Y-89252381D01*
X160095239Y-89252381D01*
X160190477Y-89204762D01*
X160238096Y-89157143D01*
X160285715Y-89061905D01*
X160285715Y-88871429D01*
X160238096Y-88776190D01*
X160190477Y-88728571D01*
X160095239Y-88680952D01*
X158385714Y-94038095D02*
X158423809Y-94000000D01*
X158500000Y-93961905D01*
X158690476Y-93961905D01*
X158766666Y-94000000D01*
X158804762Y-94038095D01*
X158842857Y-94114286D01*
X158842857Y-94190476D01*
X158804762Y-94304762D01*
X158347619Y-94761905D01*
X158842857Y-94761905D01*
X159147619Y-94038095D02*
X159185714Y-94000000D01*
X159261905Y-93961905D01*
X159452381Y-93961905D01*
X159528571Y-94000000D01*
X159566667Y-94038095D01*
X159604762Y-94114286D01*
X159604762Y-94190476D01*
X159566667Y-94304762D01*
X159109524Y-94761905D01*
X159604762Y-94761905D01*
X159947619Y-94228571D02*
X159947619Y-95028571D01*
X159947619Y-94266667D02*
X160023810Y-94228571D01*
X160176191Y-94228571D01*
X160252381Y-94266667D01*
X160290476Y-94304762D01*
X160328572Y-94380952D01*
X160328572Y-94609524D01*
X160290476Y-94685714D01*
X160252381Y-94723810D01*
X160176191Y-94761905D01*
X160023810Y-94761905D01*
X159947619Y-94723810D01*
X160938096Y-94342857D02*
X160671429Y-94342857D01*
X160671429Y-94761905D02*
X160671429Y-93961905D01*
X161052382Y-93961905D01*
M02*
