M48
INCH,TZ
T1C0.016
T2C0.024
T3C0.031
T4C0.039
T5C0.039
T6C0.040
%
G90
G05
T1
X47933Y-42717
X47933Y-45866
X47933Y-46358
X47933Y-46850
X47933Y-47343
X48425Y-46161
X48425Y-46654
X48425Y-47146
X48524Y-30709
X48524Y-31201
X48524Y-31693
X48524Y-32185
X48524Y-32677
X48524Y-33169
X48524Y-33661
X48524Y-34154
X48524Y-34646
X48524Y-35138
X48524Y-42717
X48917Y-45866
X48917Y-46358
X48917Y-46850
X49114Y-31201
X49114Y-31791
X49114Y-32185
X49114Y-32677
X49114Y-33169
X49114Y-33661
X49114Y-34154
X49114Y-34646
X49114Y-35138
X49114Y-42717
X49311Y-30709
X49409Y-46161
X49409Y-46654
X49409Y-47146
X49606Y-45669
X49705Y-31102
X49705Y-42717
X49803Y-30512
X50000Y-42323
X50039Y-43504
X50039Y-45079
X50039Y-45984
X50295Y-30709
X50295Y-42717
X50433Y-45591
X50492Y-46457
X50492Y-47146
X50591Y-42323
X50630Y-49016
X50886Y-31299
X50886Y-42717
X51063Y-39882
X51102Y-40591
X51181Y-42323
X51476Y-42717
X51850Y-41181
X52480Y-40236
X52795Y-36102
X53543Y-38287
X53583Y-33110
X53976Y-42717
X54134Y-34567
X54370Y-33110
X54488Y-42992
X54606Y-32402
X54646Y-36654
X54724Y-38484
X55039Y-35748
X55118Y-42992
X55591Y-37598
X55748Y-42992
X55827Y-32047
X55984Y-35039
X55984Y-35827
X56220Y-30827
X56220Y-31654
X56358Y-35630
X56417Y-42638
X56417Y-42992
X57244Y-42638
X57244Y-42992
X58071Y-42756
X58583Y-32795
X59882Y-32087
X60118Y-32795
X60276Y-30866
X60984Y-31614
X61122Y-37402
X61417Y-31181
X61909Y-37402
X62992Y-44685
X64528Y-33740
X64528Y-35354
X64961Y-37087
X65157Y-40551
X65315Y-34528
X65827Y-36220
X65846Y-44882
X65984Y-36693
X66260Y-32087
X66535Y-30551
X67244Y-45866
X67283Y-40709
X67402Y-44134
X67677Y-35669
X68386Y-38031
X68622Y-46339
X68819Y-44134
X69331Y-36811
X70118Y-40709
X70315Y-37795
X70551Y-30591
X70630Y-35236
X71614Y-34921
X71693Y-33150
X72205Y-32795
T2
X64173Y-31772
X64673Y-31272
X65173Y-31772
X67835Y-31378
X67835Y-32165
T3
X49803Y-44291
X55661Y-38858
X55661Y-41858
X56661Y-38858
X56661Y-41858
X57480Y-35551
X57480Y-36535
X57661Y-38858
X57661Y-41858
X58661Y-38858
X58661Y-41858
X59173Y-36850
X59661Y-38858
X59661Y-41858
X60661Y-38858
X60661Y-41858
X61142Y-36850
X61575Y-32244
X61575Y-33228
X61661Y-38858
X61661Y-41858
X61811Y-43898
X61811Y-45965
X61811Y-47933
X62661Y-38858
X62661Y-41858
X62835Y-35551
X62835Y-36535
X63661Y-38858
X63661Y-41858
X63780Y-33661
X63780Y-35394
X63780Y-43898
X63878Y-45965
X63878Y-47933
X64661Y-38858
X64661Y-41858
X65661Y-38858
X65661Y-41858
X65748Y-33661
X65748Y-35394
X66661Y-38858
X66661Y-41858
X67661Y-38858
X67661Y-41858
X68661Y-38858
X68661Y-41858
X69291Y-46949
X69291Y-48917
T4
X50394Y-32378
X50394Y-33378
X50394Y-34378
X50394Y-35378
X50394Y-36378
X50394Y-37378
X50394Y-38378
X50394Y-39378
X50394Y-40378
X50394Y-41378
X52441Y-31378
X52441Y-33740
X52441Y-35315
X52441Y-37677
X52441Y-39331
X52441Y-41693
X54213Y-31378
X54213Y-33740
X54213Y-35315
X54213Y-37677
X54213Y-39331
X54213Y-41693
X65157Y-43587
X65157Y-44587
X67520Y-46917
X67520Y-48917
X68031Y-43386
X68031Y-45748
X69803Y-43386
X69803Y-45748
X70126Y-36555
X70157Y-31713
X70157Y-34075
X71126Y-36555
X71157Y-31713
X71157Y-34075
X72126Y-36555
X72157Y-31713
X72157Y-34075
X72244Y-41358
X72244Y-42358
X72244Y-43358
X72244Y-44358
X72244Y-45358
X72244Y-46358
T5
X55591Y-31213
X55591Y-34213
X56929Y-31213
X56929Y-34213
X58268Y-31213
X58268Y-34213
X59606Y-31213
X59606Y-34213
X65846Y-45965
X65846Y-48965
X67008Y-33496
X67008Y-36496
X68346Y-33504
X68346Y-36504
X70457Y-39173
X71457Y-39173
T6
X50835Y-28831
X50835Y-29831
X51835Y-28831
X51835Y-29831
X52835Y-28831
X52835Y-29831
X53835Y-28831
X53835Y-29831
X54835Y-28831
X54835Y-29831
X55835Y-28831
X55835Y-29831
X56835Y-28831
X56835Y-29831
X57835Y-28831
X57835Y-29831
X58835Y-28831
X58835Y-29831
X59835Y-28831
X59835Y-29831
X60835Y-28831
X60835Y-29831
X61835Y-28831
X61835Y-29831
X62835Y-28831
X62835Y-29831
X63835Y-28831
X63835Y-29831
X64835Y-28831
X64835Y-29831
X65835Y-28831
X65835Y-29831
X66835Y-28831
X66835Y-29831
X67835Y-28831
X67835Y-29831
X68835Y-28831
X68835Y-29831
X69835Y-28831
X69835Y-29831
T0
M30
