G04 #@! TF.FileFunction,Soldermask,Top*
%FSLAX46Y46*%
G04 Gerber Fmt 4.6, Leading zero omitted, Abs format (unit mm)*
G04 Created by KiCad (PCBNEW 4.0.6) date Thursday, 05 October 2017 'PMt' 05:20:15 PM*
%MOMM*%
%LPD*%
G01*
G04 APERTURE LIST*
%ADD10C,0.100000*%
%ADD11C,1.300000*%
%ADD12C,1.998980*%
%ADD13C,1.600000*%
%ADD14R,2.000000X2.000000*%
%ADD15O,2.000000X2.000000*%
%ADD16R,1.700000X1.700000*%
%ADD17O,1.700000X1.700000*%
%ADD18C,1.000760*%
%ADD19R,1.600000X2.400000*%
%ADD20O,1.600000X2.400000*%
%ADD21C,1.500000*%
%ADD22R,2.250000X1.000000*%
%ADD23R,2.200000X1.050000*%
%ADD24R,1.600000X1.600000*%
%ADD25R,1.200000X1.200000*%
%ADD26C,1.200000*%
%ADD27R,1.900000X2.000000*%
%ADD28C,1.900000*%
%ADD29R,1.727200X1.727200*%
%ADD30O,1.727200X1.727200*%
%ADD31R,4.200000X1.270000*%
%ADD32R,3.000000X1.200000*%
%ADD33C,6.200000*%
%ADD34C,1.700000*%
G04 APERTURE END LIST*
D10*
D11*
X126500000Y-112500000D03*
D12*
X141200000Y-86900000D03*
X141200000Y-79280000D03*
D13*
X167000000Y-89900000D03*
X162000000Y-89900000D03*
X157000000Y-111500000D03*
X162000000Y-111500000D03*
X162250000Y-121750000D03*
X162250000Y-116750000D03*
X157000000Y-121750000D03*
X157000000Y-116750000D03*
D14*
X171500000Y-124250000D03*
D15*
X171500000Y-119170000D03*
D16*
X183500000Y-117750000D03*
D17*
X183500000Y-115210000D03*
X183500000Y-112670000D03*
X183500000Y-110130000D03*
X183500000Y-107590000D03*
X183500000Y-105050000D03*
D12*
X148000000Y-86900000D03*
X148000000Y-79280000D03*
X151400000Y-86900000D03*
X151400000Y-79280000D03*
X167250000Y-116750000D03*
X167250000Y-124370000D03*
X170200000Y-92700000D03*
X170200000Y-85080000D03*
X144600000Y-86900000D03*
X144600000Y-79280000D03*
X173600000Y-85100000D03*
X173600000Y-92720000D03*
D18*
X164270000Y-79430000D03*
X165540000Y-80700000D03*
X163000000Y-80700000D03*
D19*
X174400000Y-98700000D03*
D20*
X141380000Y-106320000D03*
X171860000Y-98700000D03*
X143920000Y-106320000D03*
X169320000Y-98700000D03*
X146460000Y-106320000D03*
X166780000Y-98700000D03*
X149000000Y-106320000D03*
X164240000Y-98700000D03*
X151540000Y-106320000D03*
X161700000Y-98700000D03*
X154080000Y-106320000D03*
X159160000Y-98700000D03*
X156620000Y-106320000D03*
X156620000Y-98700000D03*
X159160000Y-106320000D03*
X154080000Y-98700000D03*
X161700000Y-106320000D03*
X151540000Y-98700000D03*
X164240000Y-106320000D03*
X149000000Y-98700000D03*
X166780000Y-106320000D03*
X146460000Y-98700000D03*
X169320000Y-106320000D03*
X143920000Y-98700000D03*
X171860000Y-106320000D03*
X141380000Y-98700000D03*
X174400000Y-106320000D03*
D21*
X155400000Y-93300000D03*
X150400000Y-93300000D03*
D13*
X167000000Y-85500000D03*
X162000000Y-85500000D03*
D22*
X124500000Y-112500000D03*
D23*
X122500000Y-111025000D03*
X122500000Y-113975000D03*
D13*
X176000000Y-124250000D03*
X176000000Y-119250000D03*
D24*
X156400000Y-81900000D03*
D13*
X156400000Y-84400000D03*
D25*
X171600000Y-81500000D03*
D26*
X171600000Y-79500000D03*
D27*
X181500000Y-99500000D03*
D28*
X178960000Y-99500000D03*
D29*
X129120000Y-75770000D03*
D30*
X129120000Y-73230000D03*
X131660000Y-75770000D03*
X131660000Y-73230000D03*
X134200000Y-75770000D03*
X134200000Y-73230000D03*
X136740000Y-75770000D03*
X136740000Y-73230000D03*
X139280000Y-75770000D03*
X139280000Y-73230000D03*
X141820000Y-75770000D03*
X141820000Y-73230000D03*
X144360000Y-75770000D03*
X144360000Y-73230000D03*
X146900000Y-75770000D03*
X146900000Y-73230000D03*
X149440000Y-75770000D03*
X149440000Y-73230000D03*
X151980000Y-75770000D03*
X151980000Y-73230000D03*
X154520000Y-75770000D03*
X154520000Y-73230000D03*
X157060000Y-75770000D03*
X157060000Y-73230000D03*
X159600000Y-75770000D03*
X159600000Y-73230000D03*
X162140000Y-75770000D03*
X162140000Y-73230000D03*
X164680000Y-75770000D03*
X164680000Y-73230000D03*
X167220000Y-75770000D03*
X167220000Y-73230000D03*
X169760000Y-75770000D03*
X169760000Y-73230000D03*
X172300000Y-75770000D03*
X172300000Y-73230000D03*
X174840000Y-75770000D03*
X174840000Y-73230000D03*
X177380000Y-75770000D03*
X177380000Y-73230000D03*
D16*
X183200000Y-92850000D03*
D17*
X180660000Y-92850000D03*
X178120000Y-92850000D03*
D16*
X178200000Y-80550000D03*
D17*
X180740000Y-80550000D03*
X183280000Y-80550000D03*
D16*
X178200000Y-86550000D03*
D17*
X180740000Y-86550000D03*
X183280000Y-86550000D03*
D16*
X128000000Y-105100000D03*
D17*
X128000000Y-102560000D03*
X128000000Y-100020000D03*
X128000000Y-97480000D03*
X128000000Y-94940000D03*
X128000000Y-92400000D03*
X128000000Y-89860000D03*
X128000000Y-87320000D03*
X128000000Y-84780000D03*
X128000000Y-82240000D03*
D31*
X123000000Y-110000000D03*
X123000000Y-115000000D03*
D32*
X150650000Y-124500000D03*
X150650000Y-122500000D03*
X150650000Y-120500000D03*
X150650000Y-118500000D03*
X150650000Y-116500000D03*
X150650000Y-114500000D03*
X150650000Y-112500000D03*
X150650000Y-110500000D03*
X130950000Y-110500000D03*
X130950000Y-112500000D03*
X130950000Y-114500000D03*
X130950000Y-116500000D03*
X130950000Y-118500000D03*
X130950000Y-120500000D03*
X130950000Y-122500000D03*
X130950000Y-124500000D03*
D33*
X182250000Y-74500000D03*
X182250000Y-123500000D03*
X124250000Y-123500000D03*
X124250000Y-74500000D03*
D34*
X133200000Y-85700000D03*
X133200000Y-79700000D03*
X137700000Y-79700000D03*
X137700000Y-85700000D03*
X133200000Y-95700000D03*
X133200000Y-89700000D03*
X137700000Y-89700000D03*
X137700000Y-95700000D03*
X172800000Y-116200000D03*
X172800000Y-110200000D03*
X177300000Y-110200000D03*
X177300000Y-116200000D03*
X133200000Y-105900000D03*
X133200000Y-99900000D03*
X137700000Y-99900000D03*
X137700000Y-105900000D03*
X165500000Y-113250000D03*
D17*
X165500000Y-110710000D03*
D13*
X146600000Y-90800000D03*
X146600000Y-93300000D03*
X159700000Y-90800000D03*
X159700000Y-93300000D03*
M02*
